<svg xmlns="http://www.w3.org/2000/svg" width="1080" height="720" viewBox="0 0 1080 720" role="img" aria-labelledby="page-replacement-study-title page-replacement-study-desc">
  <title id="page-replacement-study-title">Page replacement frame study chart</title>
  <desc id="page-replacement-study-desc">Page-fault vs frame-count chart for preset classic-belady — classic Belady anomaly reference string that makes FIFO regress from 3 to 4 frames</desc>
  <rect width="100%" height="100%" fill="#f8fafc" />
  <rect x="36" y="28" width="1008" height="664" rx="28" fill="#ffffff" stroke="#d7dde8" stroke-width="2" />
  <text x="84" y="64" font-size="30" font-weight="700" fill="#0f172a">Page faults vs frame count</text>
  <text x="84" y="96" font-size="16" fill="#475569">preset classic-belady — classic Belady anomaly reference string that makes FIFO regress from 3 to 4 frames</text>
<line x1="84" y1="72" x2="112" y2="72" stroke="#ef4444" stroke-width="4" stroke-linecap="round" />
<text x="122" y="77" font-size="14" fill="#0f172a">FIFO</text>
<line x1="234" y1="72" x2="262" y2="72" stroke="#f59e0b" stroke-width="4" stroke-linecap="round" stroke-dasharray="10 8" />
<text x="272" y="77" font-size="14" fill="#0f172a">CLOCK</text>
<line x1="384" y1="72" x2="412" y2="72" stroke="#8b5cf6" stroke-width="4" stroke-linecap="round" stroke-dasharray="2 6" />
<text x="422" y="77" font-size="14" fill="#0f172a">AGING</text>
<line x1="534" y1="72" x2="562" y2="72" stroke="#2563eb" stroke-width="4" stroke-linecap="round" stroke-dasharray="4 7" />
<text x="572" y="77" font-size="14" fill="#0f172a">LRU</text>
<line x1="684" y1="72" x2="712" y2="72" stroke="#10b981" stroke-width="4" stroke-linecap="round" />
<text x="722" y="77" font-size="14" fill="#0f172a">OPT</text>
  <line x1="84" y1="118" x2="84" y2="478" stroke="#0f172a" stroke-width="2" />
  <line x1="84" y1="478" x2="804" y2="478" stroke="#0f172a" stroke-width="2" />
<line x1="84" y1="478.00" x2="804" y2="478.00" stroke="#d7dde8" stroke-width="1" />
<text x="70" y="483.00" font-size="13" text-anchor="end" fill="#475569">0</text>
<line x1="84" y1="418.00" x2="804" y2="418.00" stroke="#d7dde8" stroke-width="1" />
<text x="70" y="423.00" font-size="13" text-anchor="end" fill="#475569">2</text>
<line x1="84" y1="358.00" x2="804" y2="358.00" stroke="#d7dde8" stroke-width="1" />
<text x="70" y="363.00" font-size="13" text-anchor="end" fill="#475569">4</text>
<line x1="84" y1="298.00" x2="804" y2="298.00" stroke="#d7dde8" stroke-width="1" />
<text x="70" y="303.00" font-size="13" text-anchor="end" fill="#475569">6</text>
<line x1="84" y1="238.00" x2="804" y2="238.00" stroke="#d7dde8" stroke-width="1" />
<text x="70" y="243.00" font-size="13" text-anchor="end" fill="#475569">8</text>
<line x1="84" y1="178.00" x2="804" y2="178.00" stroke="#d7dde8" stroke-width="1" />
<text x="70" y="183.00" font-size="13" text-anchor="end" fill="#475569">10</text>
<line x1="84" y1="118.00" x2="804" y2="118.00" stroke="#d7dde8" stroke-width="1" />
<text x="70" y="123.00" font-size="13" text-anchor="end" fill="#475569">12</text>
<text x="84.00" y="506" font-size="13" text-anchor="middle" fill="#475569">2</text>
<text x="264.00" y="506" font-size="13" text-anchor="middle" fill="#475569">3</text>
<text x="444.00" y="506" font-size="13" text-anchor="middle" fill="#475569">4</text>
<text x="624.00" y="506" font-size="13" text-anchor="middle" fill="#475569">5</text>
<text x="804.00" y="506" font-size="13" text-anchor="middle" fill="#475569">6</text>
  <text x="444.00" y="534" font-size="14" text-anchor="middle" fill="#475569">Frames</text>
  <text x="28" y="298.00" font-size="14" fill="#475569" transform="rotate(-90 28 298.00)">Page faults</text>
<polyline fill="none" stroke="#ef4444" stroke-width="4" stroke-linecap="round" stroke-linejoin="round" points="84.00,118.00 264.00,208.00 444.00,178.00 624.00,328.00 804.00,328.00" />
<circle cx="84.00" cy="118.00" r="5.5" fill="#ef4444" stroke="#ffffff" stroke-width="2" />
<text x="84.00" y="106.00" font-size="11" text-anchor="middle" fill="#ef4444">12</text>
<circle cx="264.00" cy="208.00" r="5.5" fill="#ef4444" stroke="#ffffff" stroke-width="2" />
<text x="264.00" y="196.00" font-size="11" text-anchor="middle" fill="#ef4444">9</text>
<circle cx="444.00" cy="178.00" r="5.5" fill="#ef4444" stroke="#ffffff" stroke-width="2" />
<text x="444.00" y="166.00" font-size="11" text-anchor="middle" fill="#ef4444">10</text>
<circle cx="624.00" cy="328.00" r="5.5" fill="#ef4444" stroke="#ffffff" stroke-width="2" />
<text x="624.00" y="316.00" font-size="11" text-anchor="middle" fill="#ef4444">5</text>
<circle cx="804.00" cy="328.00" r="5.5" fill="#ef4444" stroke="#ffffff" stroke-width="2" />
<text x="804.00" y="316.00" font-size="11" text-anchor="middle" fill="#ef4444">5</text>
<polyline fill="none" stroke="#f59e0b" stroke-width="4" stroke-linecap="round" stroke-linejoin="round" points="84.00,118.00 264.00,208.00 444.00,178.00 624.00,328.00 804.00,328.00" stroke-dasharray="10 8" />
<circle cx="84.00" cy="118.00" r="5.5" fill="#f59e0b" stroke="#ffffff" stroke-width="2" />
<text x="84.00" y="106.00" font-size="11" text-anchor="middle" fill="#f59e0b">12</text>
<circle cx="264.00" cy="208.00" r="5.5" fill="#f59e0b" stroke="#ffffff" stroke-width="2" />
<text x="264.00" y="196.00" font-size="11" text-anchor="middle" fill="#f59e0b">9</text>
<circle cx="444.00" cy="178.00" r="5.5" fill="#f59e0b" stroke="#ffffff" stroke-width="2" />
<text x="444.00" y="166.00" font-size="11" text-anchor="middle" fill="#f59e0b">10</text>
<circle cx="624.00" cy="328.00" r="5.5" fill="#f59e0b" stroke="#ffffff" stroke-width="2" />
<text x="624.00" y="316.00" font-size="11" text-anchor="middle" fill="#f59e0b">5</text>
<circle cx="804.00" cy="328.00" r="5.5" fill="#f59e0b" stroke="#ffffff" stroke-width="2" />
<text x="804.00" y="316.00" font-size="11" text-anchor="middle" fill="#f59e0b">5</text>
<polyline fill="none" stroke="#8b5cf6" stroke-width="4" stroke-linecap="round" stroke-linejoin="round" points="84.00,118.00 264.00,178.00 444.00,238.00 624.00,328.00 804.00,328.00" stroke-dasharray="2 6" />
<circle cx="84.00" cy="118.00" r="5.5" fill="#8b5cf6" stroke="#ffffff" stroke-width="2" />
<text x="84.00" y="106.00" font-size="11" text-anchor="middle" fill="#8b5cf6">12</text>
<circle cx="264.00" cy="178.00" r="5.5" fill="#8b5cf6" stroke="#ffffff" stroke-width="2" />
<text x="264.00" y="166.00" font-size="11" text-anchor="middle" fill="#8b5cf6">10</text>
<circle cx="444.00" cy="238.00" r="5.5" fill="#8b5cf6" stroke="#ffffff" stroke-width="2" />
<text x="444.00" y="226.00" font-size="11" text-anchor="middle" fill="#8b5cf6">8</text>
<circle cx="624.00" cy="328.00" r="5.5" fill="#8b5cf6" stroke="#ffffff" stroke-width="2" />
<text x="624.00" y="316.00" font-size="11" text-anchor="middle" fill="#8b5cf6">5</text>
<circle cx="804.00" cy="328.00" r="5.5" fill="#8b5cf6" stroke="#ffffff" stroke-width="2" />
<text x="804.00" y="316.00" font-size="11" text-anchor="middle" fill="#8b5cf6">5</text>
<polyline fill="none" stroke="#2563eb" stroke-width="4" stroke-linecap="round" stroke-linejoin="round" points="84.00,118.00 264.00,178.00 444.00,238.00 624.00,328.00 804.00,328.00" stroke-dasharray="4 7" />
<circle cx="84.00" cy="118.00" r="5.5" fill="#2563eb" stroke="#ffffff" stroke-width="2" />
<text x="84.00" y="106.00" font-size="11" text-anchor="middle" fill="#2563eb">12</text>
<circle cx="264.00" cy="178.00" r="5.5" fill="#2563eb" stroke="#ffffff" stroke-width="2" />
<text x="264.00" y="166.00" font-size="11" text-anchor="middle" fill="#2563eb">10</text>
<circle cx="444.00" cy="238.00" r="5.5" fill="#2563eb" stroke="#ffffff" stroke-width="2" />
<text x="444.00" y="226.00" font-size="11" text-anchor="middle" fill="#2563eb">8</text>
<circle cx="624.00" cy="328.00" r="5.5" fill="#2563eb" stroke="#ffffff" stroke-width="2" />
<text x="624.00" y="316.00" font-size="11" text-anchor="middle" fill="#2563eb">5</text>
<circle cx="804.00" cy="328.00" r="5.5" fill="#2563eb" stroke="#ffffff" stroke-width="2" />
<text x="804.00" y="316.00" font-size="11" text-anchor="middle" fill="#2563eb">5</text>
<polyline fill="none" stroke="#10b981" stroke-width="4" stroke-linecap="round" stroke-linejoin="round" points="84.00,208.00 264.00,268.00 444.00,298.00 624.00,328.00 804.00,328.00" />
<circle cx="84.00" cy="208.00" r="5.5" fill="#10b981" stroke="#ffffff" stroke-width="2" />
<text x="84.00" y="196.00" font-size="11" text-anchor="middle" fill="#10b981">9</text>
<circle cx="264.00" cy="268.00" r="5.5" fill="#10b981" stroke="#ffffff" stroke-width="2" />
<text x="264.00" y="256.00" font-size="11" text-anchor="middle" fill="#10b981">7</text>
<circle cx="444.00" cy="298.00" r="5.5" fill="#10b981" stroke="#ffffff" stroke-width="2" />
<text x="444.00" y="286.00" font-size="11" text-anchor="middle" fill="#10b981">6</text>
<circle cx="624.00" cy="328.00" r="5.5" fill="#10b981" stroke="#ffffff" stroke-width="2" />
<text x="624.00" y="316.00" font-size="11" text-anchor="middle" fill="#10b981">5</text>
<circle cx="804.00" cy="328.00" r="5.5" fill="#10b981" stroke="#ffffff" stroke-width="2" />
<text x="804.00" y="316.00" font-size="11" text-anchor="middle" fill="#10b981">5</text>
  <rect x="64" y="514" width="952" height="142" rx="20" fill="#eef2ff" stroke="#c7d2fe" stroke-width="1.5" />
<text x="84" y="545" font-size="18" fill="#0f172a">workload: preset classic-belady — classic Belady anomaly reference string that makes FIFO regress from 3 to 4 frames</text>
<text x="84" y="573" font-size="18" fill="#0f172a">frame range: 2 to 6 frames | best average faults: OPT (6.40)</text>
<text x="84" y="601" font-size="18" fill="#0f172a">FIFO anomaly: 3 -&gt; 4 frames, 9 -&gt; 10 faults</text>
<text x="84" y="629" font-size="18" fill="#0f172a">Other regression: CLOCK 3 -&gt; 4 frames, 9 -&gt; 10 faults</text>
</svg>