<svg xmlns="http://www.w3.org/2000/svg" width="1160" height="820" viewBox="0 0 1160 820" role="img" aria-labelledby="library-genre-share-title" aria-describedby="library-genre-share-desc">
  <title id="library-genre-share-title">Library genre share breakdown</title>
  <desc id="library-genre-share-desc">Genre share breakdown from 2026-04-01 to 2026-04-18. Each day is a normalized stacked column showing how the selected genres share that day's active circulation. Count labels above the chart show the absolute selected-genre load for the same day.</desc>
  <rect width="1160" height="820" fill="#f4f7fb" />
  <rect x="24" y="24" width="1112" height="772" rx="28" fill="#eef4ff" stroke="#d6deeb" />
  <text x="40" y="68" font-size="30" font-weight="700" fill="#0f172a">Library genre share breakdown</text>
  <text x="40" y="95" font-size="15" fill="#475569">Normalized stacked columns show how the genre mix shifts day by day, while the labels above the bars keep the absolute circulation load visible.</text>
  <text x="40" y="116" font-size="14" fill="#475569">Range: 2026-04-01 to 2026-04-18 • Days: 18 • Generated at: 2026-04-30T12:00:00Z</text>
  <g transform="translate(40, 126)"><rect width="240" height="88" rx="18" fill="#ffffff" stroke="#d6deeb" /><text x="18" y="30" font-size="13" fill="#64748b">Selected genres</text><text x="18" y="64" font-size="30" font-weight="700" fill="#1d4ed8">4</text><text x="18" y="80" font-size="12" fill="#64748b">top limit 4</text></g><g transform="translate(310, 126)"><rect width="240" height="88" rx="18" fill="#ffffff" stroke="#d6deeb" /><text x="18" y="30" font-size="13" fill="#64748b">Days with activity</text><text x="18" y="64" font-size="30" font-weight="700" fill="#1d4ed8">18</text><text x="18" y="80" font-size="12" fill="#64748b">2026-04-01 → 2026-04-18</text></g><g transform="translate(580, 126)"><rect width="240" height="88" rx="18" fill="#ffffff" stroke="#d6deeb" /><text x="18" y="30" font-size="13" fill="#64748b">Peak selected-day load</text><text x="18" y="64" font-size="30" font-weight="700" fill="#1d4ed8">5</text><text x="18" y="80" font-size="12" fill="#64748b">active loans across the selected genres</text></g><g transform="translate(850, 126)"><rect width="240" height="88" rx="18" fill="#ffffff" stroke="#d6deeb" /><text x="18" y="30" font-size="13" fill="#64748b">Dominant switches</text><text x="18" y="64" font-size="30" font-weight="700" fill="#1d4ed8">1</text><text x="18" y="80" font-size="12" fill="#64748b">peak daily share 100%</text></g>
  <text x="40" y="248" font-size="18" font-weight="700" fill="#0f172a">Genre composition share</text>
  <text x="40" y="268" font-size="12" fill="#64748b">Bar height is normalized to 100%. The value above each labeled bar shows the day’s total active loans across the selected genres.</text>
  <line x1="104.00" y1="562.00" x2="652.00" y2="562.00" stroke="#dbe4f0" stroke-width="1" /><text x="90.00" y="566.00" font-size="12" fill="#64748b" text-anchor="end">0%</text><line x1="104.00" y1="492.00" x2="652.00" y2="492.00" stroke="#dbe4f0" stroke-width="1" /><text x="90.00" y="496.00" font-size="12" fill="#64748b" text-anchor="end">25%</text><line x1="104.00" y1="422.00" x2="652.00" y2="422.00" stroke="#dbe4f0" stroke-width="1" /><text x="90.00" y="426.00" font-size="12" fill="#64748b" text-anchor="end">50%</text><line x1="104.00" y1="352.00" x2="652.00" y2="352.00" stroke="#dbe4f0" stroke-width="1" /><text x="90.00" y="356.00" font-size="12" fill="#64748b" text-anchor="end">75%</text><line x1="104.00" y1="282.00" x2="652.00" y2="282.00" stroke="#dbe4f0" stroke-width="1" /><text x="90.00" y="286.00" font-size="12" fill="#64748b" text-anchor="end">100%</text>
  <rect x="107.22" y="282.00" width="24.00" height="280.00" fill="#059669"><title>Distributed Systems on 2026-04-01: 1 active loans, 100% of the selected-genre activity, 0 overdue, 1 checkouts, 0 returns.</title></rect><rect x="107.22" y="282.00" width="24.00" height="280.00" rx="10" fill="none" stroke="#cbd5e1" /><text x="119.22" y="268.00" font-size="11" fill="#475569" text-anchor="middle">1</text><text x="119.22" y="582.00" font-size="11" fill="#64748b" text-anchor="middle">04-01</text><rect x="137.67" y="422.00" width="24.00" height="140.00" fill="#2563eb"><title>Databases on 2026-04-02: 1 active loans, 50% of the selected-genre activity, 0 overdue, 1 checkouts, 0 returns.</title></rect><rect x="137.67" y="282.00" width="24.00" height="140.00" fill="#059669"><title>Distributed Systems on 2026-04-02: 1 active loans, 50% of the selected-genre activity, 0 overdue, 0 checkouts, 0 returns.</title></rect><rect x="137.67" y="282.00" width="24.00" height="280.00" rx="10" fill="none" stroke="#cbd5e1" /><rect x="168.11" y="422.00" width="24.00" height="140.00" fill="#2563eb"><title>Databases on 2026-04-03: 1 active loans, 50% of the selected-genre activity, 0 overdue, 0 checkouts, 0 returns.</title></rect><rect x="168.11" y="282.00" width="24.00" height="140.00" fill="#059669"><title>Distributed Systems on 2026-04-03: 1 active loans, 50% of the selected-genre activity, 0 overdue, 0 checkouts, 0 returns.</title></rect><rect x="168.11" y="282.00" width="24.00" height="280.00" rx="10" fill="none" stroke="#cbd5e1" /><rect x="198.56" y="422.00" width="24.00" height="140.00" fill="#2563eb"><title>Databases on 2026-04-04: 1 active loans, 50% of the selected-genre activity, 0 overdue, 0 checkouts, 0 returns.</title></rect><rect x="198.56" y="282.00" width="24.00" height="140.00" fill="#059669"><title>Distributed Systems on 2026-04-04: 1 active loans, 50% of the selected-genre activity, 0 overdue, 0 checkouts, 0 returns.</title></rect><rect x="198.56" y="282.00" width="24.00" height="280.00" rx="10" fill="none" stroke="#cbd5e1" /><text x="210.56" y="268.00" font-size="11" fill="#475569" text-anchor="middle">2</text><text x="210.56" y="582.00" font-size="11" fill="#64748b" text-anchor="middle">04-04</text><rect x="229.00" y="422.00" width="24.00" height="140.00" fill="#2563eb"><title>Databases on 2026-04-05: 1 active loans, 50% of the selected-genre activity, 0 overdue, 0 checkouts, 0 returns.</title></rect><rect x="229.00" y="282.00" width="24.00" height="140.00" fill="#059669"><title>Distributed Systems on 2026-04-05: 1 active loans, 50% of the selected-genre activity, 0 overdue, 0 checkouts, 0 returns.</title></rect><rect x="229.00" y="282.00" width="24.00" height="280.00" rx="10" fill="none" stroke="#cbd5e1" /><rect x="259.44" y="468.67" width="24.00" height="93.33" fill="#2563eb"><title>Databases on 2026-04-06: 1 active loans, 33.3% of the selected-genre activity, 0 overdue, 0 checkouts, 0 returns.</title></rect><rect x="259.44" y="282.00" width="24.00" height="186.67" fill="#059669"><title>Distributed Systems on 2026-04-06: 2 active loans, 66.7% of the selected-genre activity, 0 overdue, 1 checkouts, 0 returns.</title></rect><rect x="259.44" y="282.00" width="24.00" height="280.00" rx="10" fill="none" stroke="#cbd5e1" /><rect x="289.89" y="468.67" width="24.00" height="93.33" fill="#2563eb"><title>Databases on 2026-04-07: 1 active loans, 33.3% of the selected-genre activity, 0 overdue, 0 checkouts, 0 returns.</title></rect><rect x="289.89" y="282.00" width="24.00" height="186.67" fill="#059669"><title>Distributed Systems on 2026-04-07: 2 active loans, 66.7% of the selected-genre activity, 0 overdue, 0 checkouts, 0 returns.</title></rect><rect x="289.89" y="282.00" width="24.00" height="280.00" rx="10" fill="none" stroke="#cbd5e1" /><text x="301.89" y="268.00" font-size="11" fill="#475569" text-anchor="middle">3</text><text x="301.89" y="582.00" font-size="11" fill="#64748b" text-anchor="middle">04-07</text><rect x="320.33" y="422.00" width="24.00" height="140.00" fill="#2563eb"><title>Databases on 2026-04-08: 2 active loans, 50% of the selected-genre activity, 0 overdue, 1 checkouts, 0 returns.</title></rect><rect x="320.33" y="282.00" width="24.00" height="140.00" fill="#059669"><title>Distributed Systems on 2026-04-08: 2 active loans, 50% of the selected-genre activity, 0 overdue, 0 checkouts, 0 returns.</title></rect><rect x="320.33" y="282.00" width="24.00" height="280.00" rx="10" fill="none" stroke="#cbd5e1" /><rect x="350.78" y="422.00" width="24.00" height="140.00" fill="#2563eb"><title>Databases on 2026-04-09: 2 active loans, 50% of the selected-genre activity, 0 overdue, 0 checkouts, 0 returns.</title></rect><rect x="350.78" y="282.00" width="24.00" height="140.00" fill="#059669"><title>Distributed Systems on 2026-04-09: 2 active loans, 50% of the selected-genre activity, 0 overdue, 0 checkouts, 0 returns.</title></rect><rect x="350.78" y="282.00" width="24.00" height="280.00" rx="10" fill="none" stroke="#cbd5e1" /><rect x="381.22" y="422.00" width="24.00" height="140.00" fill="#2563eb"><title>Databases on 2026-04-10: 2 active loans, 50% of the selected-genre activity, 0 overdue, 0 checkouts, 0 returns.</title></rect><rect x="381.22" y="282.00" width="24.00" height="140.00" fill="#059669"><title>Distributed Systems on 2026-04-10: 2 active loans, 50% of the selected-genre activity, 0 overdue, 0 checkouts, 0 returns.</title></rect><rect x="381.22" y="282.00" width="24.00" height="280.00" rx="10" fill="none" stroke="#cbd5e1" /><text x="393.22" y="268.00" font-size="11" fill="#475569" text-anchor="middle">4</text><text x="393.22" y="582.00" font-size="11" fill="#64748b" text-anchor="middle">04-10</text><rect x="411.67" y="422.00" width="24.00" height="140.00" fill="#2563eb"><title>Databases on 2026-04-11: 2 active loans, 50% of the selected-genre activity, 0 overdue, 0 checkouts, 0 returns.</title></rect><rect x="411.67" y="282.00" width="24.00" height="140.00" fill="#059669"><title>Distributed Systems on 2026-04-11: 2 active loans, 50% of the selected-genre activity, 0 overdue, 0 checkouts, 0 returns.</title></rect><rect x="411.67" y="282.00" width="24.00" height="280.00" rx="10" fill="none" stroke="#cbd5e1" /><rect x="442.11" y="422.00" width="24.00" height="140.00" fill="#2563eb"><title>Databases on 2026-04-12: 2 active loans, 50% of the selected-genre activity, 0 overdue, 0 checkouts, 0 returns.</title></rect><rect x="442.11" y="282.00" width="24.00" height="140.00" fill="#059669"><title>Distributed Systems on 2026-04-12: 2 active loans, 50% of the selected-genre activity, 1 overdue, 0 checkouts, 0 returns.</title></rect><rect x="442.11" y="282.00" width="24.00" height="280.00" rx="10" fill="none" stroke="#cbd5e1" /><rect x="472.56" y="375.33" width="24.00" height="186.67" fill="#2563eb"><title>Databases on 2026-04-13: 2 active loans, 66.7% of the selected-genre activity, 0 overdue, 0 checkouts, 0 returns.</title></rect><rect x="472.56" y="282.00" width="24.00" height="93.33" fill="#059669"><title>Distributed Systems on 2026-04-13: 1 active loans, 33.3% of the selected-genre activity, 0 overdue, 0 checkouts, 1 returns.</title></rect><rect x="472.56" y="282.00" width="24.00" height="280.00" rx="10" fill="none" stroke="#cbd5e1" /><text x="484.56" y="268.00" font-size="11" fill="#475569" text-anchor="middle">3</text><text x="484.56" y="582.00" font-size="11" fill="#64748b" text-anchor="middle">04-13</text><rect x="503.00" y="422.00" width="24.00" height="140.00" fill="#2563eb"><title>Databases on 2026-04-14: 2 active loans, 50% of the selected-genre activity, 0 overdue, 0 checkouts, 0 returns.</title></rect><rect x="503.00" y="352.00" width="24.00" height="70.00" fill="#059669"><title>Distributed Systems on 2026-04-14: 1 active loans, 25% of the selected-genre activity, 0 overdue, 0 checkouts, 0 returns.</title></rect><rect x="503.00" y="282.00" width="24.00" height="70.00" fill="#7c3aed"><title>Networking on 2026-04-14: 1 active loans, 25% of the selected-genre activity, 0 overdue, 1 checkouts, 0 returns.</title></rect><rect x="503.00" y="282.00" width="24.00" height="280.00" rx="10" fill="none" stroke="#cbd5e1" /><rect x="533.44" y="422.00" width="24.00" height="140.00" fill="#2563eb"><title>Databases on 2026-04-15: 2 active loans, 50% of the selected-genre activity, 0 overdue, 0 checkouts, 0 returns.</title></rect><rect x="533.44" y="352.00" width="24.00" height="70.00" fill="#059669"><title>Distributed Systems on 2026-04-15: 1 active loans, 25% of the selected-genre activity, 0 overdue, 0 checkouts, 0 returns.</title></rect><rect x="533.44" y="282.00" width="24.00" height="70.00" fill="#7c3aed"><title>Networking on 2026-04-15: 1 active loans, 25% of the selected-genre activity, 0 overdue, 0 checkouts, 0 returns.</title></rect><rect x="533.44" y="282.00" width="24.00" height="280.00" rx="10" fill="none" stroke="#cbd5e1" /><rect x="563.89" y="450.00" width="24.00" height="112.00" fill="#2563eb"><title>Databases on 2026-04-16: 2 active loans, 40% of the selected-genre activity, 0 overdue, 0 checkouts, 0 returns.</title></rect><rect x="563.89" y="394.00" width="24.00" height="56.00" fill="#059669"><title>Distributed Systems on 2026-04-16: 1 active loans, 20% of the selected-genre activity, 0 overdue, 0 checkouts, 0 returns.</title></rect><rect x="563.89" y="338.00" width="24.00" height="56.00" fill="#d97706"><title>Operations on 2026-04-16: 1 active loans, 20% of the selected-genre activity, 0 overdue, 1 checkouts, 0 returns.</title></rect><rect x="563.89" y="282.00" width="24.00" height="56.00" fill="#7c3aed"><title>Networking on 2026-04-16: 1 active loans, 20% of the selected-genre activity, 0 overdue, 0 checkouts, 0 returns.</title></rect><rect x="563.89" y="282.00" width="24.00" height="280.00" rx="10" fill="none" stroke="#cbd5e1" /><text x="575.89" y="268.00" font-size="11" fill="#475569" text-anchor="middle">5</text><text x="575.89" y="582.00" font-size="11" fill="#64748b" text-anchor="middle">04-16</text><rect x="594.33" y="450.00" width="24.00" height="112.00" fill="#2563eb"><title>Databases on 2026-04-17: 2 active loans, 40% of the selected-genre activity, 1 overdue, 0 checkouts, 0 returns.</title></rect><rect x="594.33" y="394.00" width="24.00" height="56.00" fill="#059669"><title>Distributed Systems on 2026-04-17: 1 active loans, 20% of the selected-genre activity, 0 overdue, 0 checkouts, 0 returns.</title></rect><rect x="594.33" y="338.00" width="24.00" height="56.00" fill="#d97706"><title>Operations on 2026-04-17: 1 active loans, 20% of the selected-genre activity, 0 overdue, 0 checkouts, 0 returns.</title></rect><rect x="594.33" y="282.00" width="24.00" height="56.00" fill="#7c3aed"><title>Networking on 2026-04-17: 1 active loans, 20% of the selected-genre activity, 0 overdue, 0 checkouts, 0 returns.</title></rect><rect x="594.33" y="282.00" width="24.00" height="280.00" rx="10" fill="none" stroke="#cbd5e1" /><rect x="624.78" y="450.00" width="24.00" height="112.00" fill="#2563eb"><title>Databases on 2026-04-18: 2 active loans, 40% of the selected-genre activity, 1 overdue, 0 checkouts, 0 returns.</title></rect><rect x="624.78" y="394.00" width="24.00" height="56.00" fill="#059669"><title>Distributed Systems on 2026-04-18: 1 active loans, 20% of the selected-genre activity, 0 overdue, 0 checkouts, 0 returns.</title></rect><rect x="624.78" y="338.00" width="24.00" height="56.00" fill="#d97706"><title>Operations on 2026-04-18: 1 active loans, 20% of the selected-genre activity, 0 overdue, 0 checkouts, 0 returns.</title></rect><rect x="624.78" y="282.00" width="24.00" height="56.00" fill="#7c3aed"><title>Networking on 2026-04-18: 1 active loans, 20% of the selected-genre activity, 0 overdue, 0 checkouts, 0 returns.</title></rect><rect x="624.78" y="282.00" width="24.00" height="280.00" rx="10" fill="none" stroke="#cbd5e1" /><text x="636.78" y="268.00" font-size="11" fill="#475569" text-anchor="middle">5</text><text x="636.78" y="582.00" font-size="11" fill="#64748b" text-anchor="middle">04-18</text>
  <text x="704" y="248" font-size="18" font-weight="700" fill="#0f172a">Legend</text>
  <text x="704" y="268" font-size="12" fill="#64748b">Top genres touching the selected range. Colors stay aligned with the existing genre trend and heatmap exports.</text>
  <rect x="704.00" y="294.00" width="16" height="16" rx="4" fill="#2563eb" /><text x="728.00" y="307.00" font-size="14" fill="#334155">Databases</text><rect x="894.00" y="294.00" width="16" height="16" rx="4" fill="#059669" /><text x="918.00" y="307.00" font-size="14" fill="#334155">Distributed Systems</text><rect x="704.00" y="320.00" width="16" height="16" rx="4" fill="#d97706" /><text x="728.00" y="333.00" font-size="14" fill="#334155">Operations</text><rect x="894.00" y="320.00" width="16" height="16" rx="4" fill="#7c3aed" /><text x="918.00" y="333.00" font-size="14" fill="#334155">Networking</text>
  <rect x="704" y="386" width="376" height="176" rx="22" fill="#ffffff" stroke="#d6deeb" />
  <text x="728" y="418" font-size="18" font-weight="700" fill="#0f172a">Composition notes</text>
  <text x="728" y="446" font-size="14" fill="#334155">• 18 active day(s) had at least one selected-genre loan.</text>
  <text x="728" y="474" font-size="14" fill="#334155">• Peak selected-day load was 5 active loan(s).</text>
  <text x="728" y="502" font-size="14" fill="#334155">• The most concentrated single-day share reached 100%.</text>
  <text x="728" y="530" font-size="14" fill="#334155">• The uniquely dominant genre changed 1 time(s); tied days do not force a winner.</text>
  <text x="40" y="630" font-size="18" font-weight="700" fill="#0f172a">Genre share summary</text>
  <rect x="40" y="636" width="1080" height="30" rx="8" fill="#dbeafe" stroke="#bfdbfe" />
  <text x="74" y="655" font-size="13" font-weight="700" fill="#1e3a8a">Genre</text>
  <text x="366" y="655" font-size="13" font-weight="700" fill="#1e3a8a">Loan-days</text>
  <text x="502" y="655" font-size="13" font-weight="700" fill="#1e3a8a">Avg share</text>
  <text x="646" y="655" font-size="13" font-weight="700" fill="#1e3a8a">Max share</text>
  <text x="804" y="655" font-size="13" font-weight="700" fill="#1e3a8a">Lead days</text>
  <text x="958" y="655" font-size="13" font-weight="700" fill="#1e3a8a">Last checkout</text>
  <rect x="40" y="672.00" width="1080" height="30.00" rx="8" fill="#ffffff" stroke="#e2e8f0" /><circle cx="58" cy="691.00" r="6" fill="#2563eb" /><text x="74" y="695.00" font-size="13" fill="#0f172a">Databases</text><text x="366" y="695.00" font-size="13" fill="#0f172a">28</text><text x="502" y="695.00" font-size="13" fill="#0f172a">44.6%</text><text x="646" y="695.00" font-size="13" fill="#0f172a">66.7%</text><text x="804" y="695.00" font-size="13" fill="#0f172a">6</text><text x="958" y="695.00" font-size="13" fill="#0f172a">2026-04-08</text><rect x="40" y="702.00" width="1080" height="30.00" rx="8" fill="#f8fafc" stroke="#e2e8f0" /><circle cx="58" cy="721.00" r="6" fill="#059669" /><text x="74" y="725.00" font-size="13" fill="#0f172a">Distributed Systems</text><text x="366" y="725.00" font-size="13" fill="#0f172a">25</text><text x="502" y="725.00" font-size="13" fill="#0f172a">45.9%</text><text x="646" y="725.00" font-size="13" fill="#0f172a">100%</text><text x="804" y="725.00" font-size="13" fill="#0f172a">3</text><text x="958" y="725.00" font-size="13" fill="#0f172a">2026-04-06</text><rect x="40" y="732.00" width="1080" height="30.00" rx="8" fill="#ffffff" stroke="#e2e8f0" /><circle cx="58" cy="751.00" r="6" fill="#d97706" /><text x="74" y="755.00" font-size="13" fill="#0f172a">Operations</text><text x="366" y="755.00" font-size="13" fill="#0f172a">3</text><text x="502" y="755.00" font-size="13" fill="#0f172a">3.3%</text><text x="646" y="755.00" font-size="13" fill="#0f172a">20%</text><text x="804" y="755.00" font-size="13" fill="#0f172a">0</text><text x="958" y="755.00" font-size="13" fill="#0f172a">2026-04-16</text><rect x="40" y="762.00" width="1080" height="30.00" rx="8" fill="#f8fafc" stroke="#e2e8f0" /><circle cx="58" cy="781.00" r="6" fill="#7c3aed" /><text x="74" y="785.00" font-size="13" fill="#0f172a">Networking</text><text x="366" y="785.00" font-size="13" fill="#0f172a">5</text><text x="502" y="785.00" font-size="13" fill="#0f172a">6.1%</text><text x="646" y="785.00" font-size="13" fill="#0f172a">25%</text><text x="804" y="785.00" font-size="13" fill="#0f172a">0</text><text x="958" y="785.00" font-size="13" fill="#0f172a">2026-04-14</text>
</svg>
