<svg xmlns="http://www.w3.org/2000/svg" width="1160" height="760" viewBox="0 0 1160 760" role="img" aria-labelledby="library-trends-title" aria-describedby="library-trends-desc">
  <title id="library-trends-title">Library circulation trends</title>
  <desc id="library-trends-desc">Small-multiple circulation trend charts covering 2026-04-01 through 2026-04-30. The export includes active loans, overdue loans, daily checkouts, and daily returns.</desc>
  <rect width="1160" height="760" fill="#f4f7fb" />
  <rect x="24" y="24" width="1112" height="712" rx="28" fill="#eef4ff" stroke="#d6deeb" />
  <text x="40" y="70" font-size="30" font-weight="700" fill="#0f172a">Library circulation trends</text>
  <text x="40" y="98" font-size="15" fill="#475569">Daily circulation analytics for a recruiter-friendly portfolio artifact, exported from the SQLite CLI without opening the database manually.</text>
  <text x="40" y="220" font-size="14" fill="#475569">Range: 2026-04-01 to 2026-04-30 • Days: 30 • Generated at: 2026-04-30T12:00:00Z</text>
  <g transform="translate(40, 118)"><rect width="240" height="88" rx="18" fill="#ffffff" stroke="#d6deeb" /><text x="18" y="32" font-size="13" fill="#64748b">Peak active loans</text><text x="18" y="67" font-size="30" font-weight="700" fill="#2563eb">3</text></g><g transform="translate(310, 118)"><rect width="240" height="88" rx="18" fill="#ffffff" stroke="#d6deeb" /><text x="18" y="32" font-size="13" fill="#64748b">Peak overdue loans</text><text x="18" y="67" font-size="30" font-weight="700" fill="#d97706">1</text></g><g transform="translate(580, 118)"><rect width="240" height="88" rx="18" fill="#ffffff" stroke="#d6deeb" /><text x="18" y="32" font-size="13" fill="#64748b">Total checkouts</text><text x="18" y="67" font-size="30" font-weight="700" fill="#7c3aed">4</text></g><g transform="translate(850, 118)"><rect width="240" height="88" rx="18" fill="#ffffff" stroke="#d6deeb" /><text x="18" y="32" font-size="13" fill="#64748b">Total returns</text><text x="18" y="67" font-size="30" font-weight="700" fill="#059669">2</text></g>
  <g role="group" aria-labelledby="active-panel-title" aria-describedby="active-panel-desc"><title id="active-panel-title">Active loans</title><desc id="active-panel-desc">Daily active loans from 2026-04-01 to 2026-04-30. Peak value 3, latest value 2.</desc><rect x="40.00" y="240.00" width="520.00" height="220.00" rx="22" fill="#ffffff" stroke="#d6deeb" /><text x="58.00" y="268.00" font-size="18" font-weight="700" fill="#0f172a">Active loans</text><text x="542.00" y="268.00" font-size="13" font-weight="600" fill="#2563eb" text-anchor="end">latest 2</text><line x1="92.00" y1="420.00" x2="534.00" y2="420.00" stroke="#dbe4f0" stroke-width="1" /><text x="54.00" y="424.00" font-size="12" fill="#64748b">0</text><line x1="92.00" y1="328.00" x2="534.00" y2="328.00" stroke="#dbe4f0" stroke-width="1" /><text x="54.00" y="332.00" font-size="12" fill="#64748b">2</text><line x1="92.00" y1="282.00" x2="534.00" y2="282.00" stroke="#dbe4f0" stroke-width="1" /><text x="54.00" y="286.00" font-size="12" fill="#64748b">3</text><line x1="92.00" y1="420.00" x2="534.00" y2="420.00" stroke="#94a3b8" stroke-width="1.2" /><polyline fill="none" stroke="#2563eb" stroke-width="3" stroke-linecap="round" stroke-linejoin="round" points="92.00,374.00 107.24,374.00 122.48,374.00 137.72,374.00 152.97,328.00 168.21,328.00 183.45,328.00 198.69,328.00 213.93,328.00 229.17,328.00 244.41,328.00 259.66,282.00 274.90,282.00 290.14,282.00 305.38,328.00 320.62,328.00 335.86,328.00 351.10,282.00 366.34,282.00 381.59,328.00 396.83,328.00 412.07,328.00 427.31,328.00 442.55,328.00 457.79,328.00 473.03,328.00 488.28,328.00 503.52,328.00 518.76,328.00 534.00,328.00" /><circle cx="92.00" cy="374.00" r="3.5" fill="#2563eb"><title>Active loans on 2026-04-01: 1</title></circle><circle cx="107.24" cy="374.00" r="3.5" fill="#2563eb"><title>Active loans on 2026-04-02: 1</title></circle><circle cx="122.48" cy="374.00" r="3.5" fill="#2563eb"><title>Active loans on 2026-04-03: 1</title></circle><circle cx="137.72" cy="374.00" r="3.5" fill="#2563eb"><title>Active loans on 2026-04-04: 1</title></circle><circle cx="152.97" cy="328.00" r="3.5" fill="#2563eb"><title>Active loans on 2026-04-05: 2</title></circle><circle cx="168.21" cy="328.00" r="3.5" fill="#2563eb"><title>Active loans on 2026-04-06: 2</title></circle><circle cx="183.45" cy="328.00" r="3.5" fill="#2563eb"><title>Active loans on 2026-04-07: 2</title></circle><circle cx="198.69" cy="328.00" r="3.5" fill="#2563eb"><title>Active loans on 2026-04-08: 2</title></circle><circle cx="213.93" cy="328.00" r="3.5" fill="#2563eb"><title>Active loans on 2026-04-09: 2</title></circle><circle cx="229.17" cy="328.00" r="3.5" fill="#2563eb"><title>Active loans on 2026-04-10: 2</title></circle><circle cx="244.41" cy="328.00" r="3.5" fill="#2563eb"><title>Active loans on 2026-04-11: 2</title></circle><circle cx="259.66" cy="282.00" r="3.5" fill="#2563eb"><title>Active loans on 2026-04-12: 3</title></circle><circle cx="274.90" cy="282.00" r="3.5" fill="#2563eb"><title>Active loans on 2026-04-13: 3</title></circle><circle cx="290.14" cy="282.00" r="3.5" fill="#2563eb"><title>Active loans on 2026-04-14: 3</title></circle><circle cx="305.38" cy="328.00" r="3.5" fill="#2563eb"><title>Active loans on 2026-04-15: 2</title></circle><circle cx="320.62" cy="328.00" r="3.5" fill="#2563eb"><title>Active loans on 2026-04-16: 2</title></circle><circle cx="335.86" cy="328.00" r="3.5" fill="#2563eb"><title>Active loans on 2026-04-17: 2</title></circle><circle cx="351.10" cy="282.00" r="3.5" fill="#2563eb"><title>Active loans on 2026-04-18: 3</title></circle><circle cx="366.34" cy="282.00" r="3.5" fill="#2563eb"><title>Active loans on 2026-04-19: 3</title></circle><circle cx="381.59" cy="328.00" r="3.5" fill="#2563eb"><title>Active loans on 2026-04-20: 2</title></circle><circle cx="396.83" cy="328.00" r="3.5" fill="#2563eb"><title>Active loans on 2026-04-21: 2</title></circle><circle cx="412.07" cy="328.00" r="3.5" fill="#2563eb"><title>Active loans on 2026-04-22: 2</title></circle><circle cx="427.31" cy="328.00" r="3.5" fill="#2563eb"><title>Active loans on 2026-04-23: 2</title></circle><circle cx="442.55" cy="328.00" r="3.5" fill="#2563eb"><title>Active loans on 2026-04-24: 2</title></circle><circle cx="457.79" cy="328.00" r="3.5" fill="#2563eb"><title>Active loans on 2026-04-25: 2</title></circle><circle cx="473.03" cy="328.00" r="3.5" fill="#2563eb"><title>Active loans on 2026-04-26: 2</title></circle><circle cx="488.28" cy="328.00" r="3.5" fill="#2563eb"><title>Active loans on 2026-04-27: 2</title></circle><circle cx="503.52" cy="328.00" r="3.5" fill="#2563eb"><title>Active loans on 2026-04-28: 2</title></circle><circle cx="518.76" cy="328.00" r="3.5" fill="#2563eb"><title>Active loans on 2026-04-29: 2</title></circle><circle cx="534.00" cy="328.00" r="3.5" fill="#2563eb"><title>Active loans on 2026-04-30: 2</title></circle><text x="92.00" y="444.00" font-size="12" fill="#64748b" text-anchor="start">2026-04-01</text><text x="313.00" y="444.00" font-size="12" fill="#64748b" text-anchor="middle">2026-04-16</text><text x="534.00" y="444.00" font-size="12" fill="#64748b" text-anchor="end">2026-04-30</text></g><g role="group" aria-labelledby="overdue-panel-title" aria-describedby="overdue-panel-desc"><title id="overdue-panel-title">Overdue loans</title><desc id="overdue-panel-desc">Daily overdue loans from 2026-04-01 to 2026-04-30. Peak value 1, latest value 1.</desc><rect x="600.00" y="240.00" width="520.00" height="220.00" rx="22" fill="#ffffff" stroke="#d6deeb" /><text x="618.00" y="268.00" font-size="18" font-weight="700" fill="#0f172a">Overdue loans</text><text x="1102.00" y="268.00" font-size="13" font-weight="600" fill="#d97706" text-anchor="end">latest 1</text><line x1="652.00" y1="420.00" x2="1094.00" y2="420.00" stroke="#dbe4f0" stroke-width="1" /><text x="614.00" y="424.00" font-size="12" fill="#64748b">0</text><line x1="652.00" y1="282.00" x2="1094.00" y2="282.00" stroke="#dbe4f0" stroke-width="1" /><text x="614.00" y="286.00" font-size="12" fill="#64748b">1</text><line x1="652.00" y1="420.00" x2="1094.00" y2="420.00" stroke="#94a3b8" stroke-width="1.2" /><polyline fill="none" stroke="#d97706" stroke-width="3" stroke-linecap="round" stroke-linejoin="round" points="652.00,420.00 667.24,420.00 682.48,420.00 697.72,420.00 712.97,420.00 728.21,420.00 743.45,420.00 758.69,420.00 773.93,420.00 789.17,420.00 804.41,420.00 819.66,420.00 834.90,282.00 850.14,282.00 865.38,420.00 880.62,282.00 895.86,282.00 911.10,282.00 926.34,282.00 941.59,420.00 956.83,420.00 972.07,420.00 987.31,420.00 1002.55,420.00 1017.79,420.00 1033.03,420.00 1048.28,420.00 1063.52,420.00 1078.76,282.00 1094.00,282.00" /><circle cx="652.00" cy="420.00" r="3.5" fill="#d97706"><title>Overdue loans on 2026-04-01: 0</title></circle><circle cx="667.24" cy="420.00" r="3.5" fill="#d97706"><title>Overdue loans on 2026-04-02: 0</title></circle><circle cx="682.48" cy="420.00" r="3.5" fill="#d97706"><title>Overdue loans on 2026-04-03: 0</title></circle><circle cx="697.72" cy="420.00" r="3.5" fill="#d97706"><title>Overdue loans on 2026-04-04: 0</title></circle><circle cx="712.97" cy="420.00" r="3.5" fill="#d97706"><title>Overdue loans on 2026-04-05: 0</title></circle><circle cx="728.21" cy="420.00" r="3.5" fill="#d97706"><title>Overdue loans on 2026-04-06: 0</title></circle><circle cx="743.45" cy="420.00" r="3.5" fill="#d97706"><title>Overdue loans on 2026-04-07: 0</title></circle><circle cx="758.69" cy="420.00" r="3.5" fill="#d97706"><title>Overdue loans on 2026-04-08: 0</title></circle><circle cx="773.93" cy="420.00" r="3.5" fill="#d97706"><title>Overdue loans on 2026-04-09: 0</title></circle><circle cx="789.17" cy="420.00" r="3.5" fill="#d97706"><title>Overdue loans on 2026-04-10: 0</title></circle><circle cx="804.41" cy="420.00" r="3.5" fill="#d97706"><title>Overdue loans on 2026-04-11: 0</title></circle><circle cx="819.66" cy="420.00" r="3.5" fill="#d97706"><title>Overdue loans on 2026-04-12: 0</title></circle><circle cx="834.90" cy="282.00" r="3.5" fill="#d97706"><title>Overdue loans on 2026-04-13: 1</title></circle><circle cx="850.14" cy="282.00" r="3.5" fill="#d97706"><title>Overdue loans on 2026-04-14: 1</title></circle><circle cx="865.38" cy="420.00" r="3.5" fill="#d97706"><title>Overdue loans on 2026-04-15: 0</title></circle><circle cx="880.62" cy="282.00" r="3.5" fill="#d97706"><title>Overdue loans on 2026-04-16: 1</title></circle><circle cx="895.86" cy="282.00" r="3.5" fill="#d97706"><title>Overdue loans on 2026-04-17: 1</title></circle><circle cx="911.10" cy="282.00" r="3.5" fill="#d97706"><title>Overdue loans on 2026-04-18: 1</title></circle><circle cx="926.34" cy="282.00" r="3.5" fill="#d97706"><title>Overdue loans on 2026-04-19: 1</title></circle><circle cx="941.59" cy="420.00" r="3.5" fill="#d97706"><title>Overdue loans on 2026-04-20: 0</title></circle><circle cx="956.83" cy="420.00" r="3.5" fill="#d97706"><title>Overdue loans on 2026-04-21: 0</title></circle><circle cx="972.07" cy="420.00" r="3.5" fill="#d97706"><title>Overdue loans on 2026-04-22: 0</title></circle><circle cx="987.31" cy="420.00" r="3.5" fill="#d97706"><title>Overdue loans on 2026-04-23: 0</title></circle><circle cx="1002.55" cy="420.00" r="3.5" fill="#d97706"><title>Overdue loans on 2026-04-24: 0</title></circle><circle cx="1017.79" cy="420.00" r="3.5" fill="#d97706"><title>Overdue loans on 2026-04-25: 0</title></circle><circle cx="1033.03" cy="420.00" r="3.5" fill="#d97706"><title>Overdue loans on 2026-04-26: 0</title></circle><circle cx="1048.28" cy="420.00" r="3.5" fill="#d97706"><title>Overdue loans on 2026-04-27: 0</title></circle><circle cx="1063.52" cy="420.00" r="3.5" fill="#d97706"><title>Overdue loans on 2026-04-28: 0</title></circle><circle cx="1078.76" cy="282.00" r="3.5" fill="#d97706"><title>Overdue loans on 2026-04-29: 1</title></circle><circle cx="1094.00" cy="282.00" r="3.5" fill="#d97706"><title>Overdue loans on 2026-04-30: 1</title></circle><text x="652.00" y="444.00" font-size="12" fill="#64748b" text-anchor="start">2026-04-01</text><text x="873.00" y="444.00" font-size="12" fill="#64748b" text-anchor="middle">2026-04-16</text><text x="1094.00" y="444.00" font-size="12" fill="#64748b" text-anchor="end">2026-04-30</text></g><g role="group" aria-labelledby="checkouts-panel-title" aria-describedby="checkouts-panel-desc"><title id="checkouts-panel-title">Checkouts started</title><desc id="checkouts-panel-desc">Daily checkouts started from 2026-04-01 to 2026-04-30. Peak value 1, latest value 0.</desc><rect x="40.00" y="500.00" width="520.00" height="220.00" rx="22" fill="#ffffff" stroke="#d6deeb" /><text x="58.00" y="528.00" font-size="18" font-weight="700" fill="#0f172a">Checkouts started</text><text x="542.00" y="528.00" font-size="13" font-weight="600" fill="#7c3aed" text-anchor="end">latest 0</text><line x1="92.00" y1="680.00" x2="534.00" y2="680.00" stroke="#dbe4f0" stroke-width="1" /><text x="54.00" y="684.00" font-size="12" fill="#64748b">0</text><line x1="92.00" y1="542.00" x2="534.00" y2="542.00" stroke="#dbe4f0" stroke-width="1" /><text x="54.00" y="546.00" font-size="12" fill="#64748b">1</text><line x1="92.00" y1="680.00" x2="534.00" y2="680.00" stroke="#94a3b8" stroke-width="1.2" /><polyline fill="none" stroke="#7c3aed" stroke-width="3" stroke-linecap="round" stroke-linejoin="round" points="92.00,542.00 107.24,680.00 122.48,680.00 137.72,680.00 152.97,542.00 168.21,680.00 183.45,680.00 198.69,680.00 213.93,680.00 229.17,680.00 244.41,680.00 259.66,542.00 274.90,680.00 290.14,680.00 305.38,680.00 320.62,680.00 335.86,680.00 351.10,542.00 366.34,680.00 381.59,680.00 396.83,680.00 412.07,680.00 427.31,680.00 442.55,680.00 457.79,680.00 473.03,680.00 488.28,680.00 503.52,680.00 518.76,680.00 534.00,680.00" /><circle cx="92.00" cy="542.00" r="3.5" fill="#7c3aed"><title>Checkouts started on 2026-04-01: 1</title></circle><circle cx="107.24" cy="680.00" r="3.5" fill="#7c3aed"><title>Checkouts started on 2026-04-02: 0</title></circle><circle cx="122.48" cy="680.00" r="3.5" fill="#7c3aed"><title>Checkouts started on 2026-04-03: 0</title></circle><circle cx="137.72" cy="680.00" r="3.5" fill="#7c3aed"><title>Checkouts started on 2026-04-04: 0</title></circle><circle cx="152.97" cy="542.00" r="3.5" fill="#7c3aed"><title>Checkouts started on 2026-04-05: 1</title></circle><circle cx="168.21" cy="680.00" r="3.5" fill="#7c3aed"><title>Checkouts started on 2026-04-06: 0</title></circle><circle cx="183.45" cy="680.00" r="3.5" fill="#7c3aed"><title>Checkouts started on 2026-04-07: 0</title></circle><circle cx="198.69" cy="680.00" r="3.5" fill="#7c3aed"><title>Checkouts started on 2026-04-08: 0</title></circle><circle cx="213.93" cy="680.00" r="3.5" fill="#7c3aed"><title>Checkouts started on 2026-04-09: 0</title></circle><circle cx="229.17" cy="680.00" r="3.5" fill="#7c3aed"><title>Checkouts started on 2026-04-10: 0</title></circle><circle cx="244.41" cy="680.00" r="3.5" fill="#7c3aed"><title>Checkouts started on 2026-04-11: 0</title></circle><circle cx="259.66" cy="542.00" r="3.5" fill="#7c3aed"><title>Checkouts started on 2026-04-12: 1</title></circle><circle cx="274.90" cy="680.00" r="3.5" fill="#7c3aed"><title>Checkouts started on 2026-04-13: 0</title></circle><circle cx="290.14" cy="680.00" r="3.5" fill="#7c3aed"><title>Checkouts started on 2026-04-14: 0</title></circle><circle cx="305.38" cy="680.00" r="3.5" fill="#7c3aed"><title>Checkouts started on 2026-04-15: 0</title></circle><circle cx="320.62" cy="680.00" r="3.5" fill="#7c3aed"><title>Checkouts started on 2026-04-16: 0</title></circle><circle cx="335.86" cy="680.00" r="3.5" fill="#7c3aed"><title>Checkouts started on 2026-04-17: 0</title></circle><circle cx="351.10" cy="542.00" r="3.5" fill="#7c3aed"><title>Checkouts started on 2026-04-18: 1</title></circle><circle cx="366.34" cy="680.00" r="3.5" fill="#7c3aed"><title>Checkouts started on 2026-04-19: 0</title></circle><circle cx="381.59" cy="680.00" r="3.5" fill="#7c3aed"><title>Checkouts started on 2026-04-20: 0</title></circle><circle cx="396.83" cy="680.00" r="3.5" fill="#7c3aed"><title>Checkouts started on 2026-04-21: 0</title></circle><circle cx="412.07" cy="680.00" r="3.5" fill="#7c3aed"><title>Checkouts started on 2026-04-22: 0</title></circle><circle cx="427.31" cy="680.00" r="3.5" fill="#7c3aed"><title>Checkouts started on 2026-04-23: 0</title></circle><circle cx="442.55" cy="680.00" r="3.5" fill="#7c3aed"><title>Checkouts started on 2026-04-24: 0</title></circle><circle cx="457.79" cy="680.00" r="3.5" fill="#7c3aed"><title>Checkouts started on 2026-04-25: 0</title></circle><circle cx="473.03" cy="680.00" r="3.5" fill="#7c3aed"><title>Checkouts started on 2026-04-26: 0</title></circle><circle cx="488.28" cy="680.00" r="3.5" fill="#7c3aed"><title>Checkouts started on 2026-04-27: 0</title></circle><circle cx="503.52" cy="680.00" r="3.5" fill="#7c3aed"><title>Checkouts started on 2026-04-28: 0</title></circle><circle cx="518.76" cy="680.00" r="3.5" fill="#7c3aed"><title>Checkouts started on 2026-04-29: 0</title></circle><circle cx="534.00" cy="680.00" r="3.5" fill="#7c3aed"><title>Checkouts started on 2026-04-30: 0</title></circle><text x="92.00" y="704.00" font-size="12" fill="#64748b" text-anchor="start">2026-04-01</text><text x="313.00" y="704.00" font-size="12" fill="#64748b" text-anchor="middle">2026-04-16</text><text x="534.00" y="704.00" font-size="12" fill="#64748b" text-anchor="end">2026-04-30</text></g><g role="group" aria-labelledby="returns-panel-title" aria-describedby="returns-panel-desc"><title id="returns-panel-title">Returns completed</title><desc id="returns-panel-desc">Daily returns completed from 2026-04-01 to 2026-04-30. Peak value 1, latest value 0.</desc><rect x="600.00" y="500.00" width="520.00" height="220.00" rx="22" fill="#ffffff" stroke="#d6deeb" /><text x="618.00" y="528.00" font-size="18" font-weight="700" fill="#0f172a">Returns completed</text><text x="1102.00" y="528.00" font-size="13" font-weight="600" fill="#059669" text-anchor="end">latest 0</text><line x1="652.00" y1="680.00" x2="1094.00" y2="680.00" stroke="#dbe4f0" stroke-width="1" /><text x="614.00" y="684.00" font-size="12" fill="#64748b">0</text><line x1="652.00" y1="542.00" x2="1094.00" y2="542.00" stroke="#dbe4f0" stroke-width="1" /><text x="614.00" y="546.00" font-size="12" fill="#64748b">1</text><line x1="652.00" y1="680.00" x2="1094.00" y2="680.00" stroke="#94a3b8" stroke-width="1.2" /><polyline fill="none" stroke="#059669" stroke-width="3" stroke-linecap="round" stroke-linejoin="round" points="652.00,680.00 667.24,680.00 682.48,680.00 697.72,680.00 712.97,680.00 728.21,680.00 743.45,680.00 758.69,680.00 773.93,680.00 789.17,680.00 804.41,680.00 819.66,680.00 834.90,680.00 850.14,680.00 865.38,542.00 880.62,680.00 895.86,680.00 911.10,680.00 926.34,680.00 941.59,542.00 956.83,680.00 972.07,680.00 987.31,680.00 1002.55,680.00 1017.79,680.00 1033.03,680.00 1048.28,680.00 1063.52,680.00 1078.76,680.00 1094.00,680.00" /><circle cx="652.00" cy="680.00" r="3.5" fill="#059669"><title>Returns completed on 2026-04-01: 0</title></circle><circle cx="667.24" cy="680.00" r="3.5" fill="#059669"><title>Returns completed on 2026-04-02: 0</title></circle><circle cx="682.48" cy="680.00" r="3.5" fill="#059669"><title>Returns completed on 2026-04-03: 0</title></circle><circle cx="697.72" cy="680.00" r="3.5" fill="#059669"><title>Returns completed on 2026-04-04: 0</title></circle><circle cx="712.97" cy="680.00" r="3.5" fill="#059669"><title>Returns completed on 2026-04-05: 0</title></circle><circle cx="728.21" cy="680.00" r="3.5" fill="#059669"><title>Returns completed on 2026-04-06: 0</title></circle><circle cx="743.45" cy="680.00" r="3.5" fill="#059669"><title>Returns completed on 2026-04-07: 0</title></circle><circle cx="758.69" cy="680.00" r="3.5" fill="#059669"><title>Returns completed on 2026-04-08: 0</title></circle><circle cx="773.93" cy="680.00" r="3.5" fill="#059669"><title>Returns completed on 2026-04-09: 0</title></circle><circle cx="789.17" cy="680.00" r="3.5" fill="#059669"><title>Returns completed on 2026-04-10: 0</title></circle><circle cx="804.41" cy="680.00" r="3.5" fill="#059669"><title>Returns completed on 2026-04-11: 0</title></circle><circle cx="819.66" cy="680.00" r="3.5" fill="#059669"><title>Returns completed on 2026-04-12: 0</title></circle><circle cx="834.90" cy="680.00" r="3.5" fill="#059669"><title>Returns completed on 2026-04-13: 0</title></circle><circle cx="850.14" cy="680.00" r="3.5" fill="#059669"><title>Returns completed on 2026-04-14: 0</title></circle><circle cx="865.38" cy="542.00" r="3.5" fill="#059669"><title>Returns completed on 2026-04-15: 1</title></circle><circle cx="880.62" cy="680.00" r="3.5" fill="#059669"><title>Returns completed on 2026-04-16: 0</title></circle><circle cx="895.86" cy="680.00" r="3.5" fill="#059669"><title>Returns completed on 2026-04-17: 0</title></circle><circle cx="911.10" cy="680.00" r="3.5" fill="#059669"><title>Returns completed on 2026-04-18: 0</title></circle><circle cx="926.34" cy="680.00" r="3.5" fill="#059669"><title>Returns completed on 2026-04-19: 0</title></circle><circle cx="941.59" cy="542.00" r="3.5" fill="#059669"><title>Returns completed on 2026-04-20: 1</title></circle><circle cx="956.83" cy="680.00" r="3.5" fill="#059669"><title>Returns completed on 2026-04-21: 0</title></circle><circle cx="972.07" cy="680.00" r="3.5" fill="#059669"><title>Returns completed on 2026-04-22: 0</title></circle><circle cx="987.31" cy="680.00" r="3.5" fill="#059669"><title>Returns completed on 2026-04-23: 0</title></circle><circle cx="1002.55" cy="680.00" r="3.5" fill="#059669"><title>Returns completed on 2026-04-24: 0</title></circle><circle cx="1017.79" cy="680.00" r="3.5" fill="#059669"><title>Returns completed on 2026-04-25: 0</title></circle><circle cx="1033.03" cy="680.00" r="3.5" fill="#059669"><title>Returns completed on 2026-04-26: 0</title></circle><circle cx="1048.28" cy="680.00" r="3.5" fill="#059669"><title>Returns completed on 2026-04-27: 0</title></circle><circle cx="1063.52" cy="680.00" r="3.5" fill="#059669"><title>Returns completed on 2026-04-28: 0</title></circle><circle cx="1078.76" cy="680.00" r="3.5" fill="#059669"><title>Returns completed on 2026-04-29: 0</title></circle><circle cx="1094.00" cy="680.00" r="3.5" fill="#059669"><title>Returns completed on 2026-04-30: 0</title></circle><text x="652.00" y="704.00" font-size="12" fill="#64748b" text-anchor="start">2026-04-01</text><text x="873.00" y="704.00" font-size="12" fill="#64748b" text-anchor="middle">2026-04-16</text><text x="1094.00" y="704.00" font-size="12" fill="#64748b" text-anchor="end">2026-04-30</text></g>
</svg>
