<svg xmlns="http://www.w3.org/2000/svg" width="1160" height="760" viewBox="0 0 1160 760" role="img" aria-labelledby="library-borrower-trends-title" aria-describedby="library-borrower-trends-desc">
  <title id="library-borrower-trends-title">Library borrower trend breakdown</title>
  <desc id="library-borrower-trends-desc">Borrower-level circulation trend breakdown from 2026-04-01 to 2026-04-15. The export focuses on the top 4 borrowers by loans touching the selected range and includes active-loan and overdue-loan trend panels plus a summary table.</desc>
  <rect width="1160" height="760" fill="#f4f7fb" />
  <rect x="24" y="24" width="1112" height="712" rx="28" fill="#eef4ff" stroke="#d6deeb" />
  <text x="40" y="68" font-size="30" font-weight="700" fill="#0f172a">Library borrower trend breakdown</text>
  <text x="40" y="95" font-size="15" fill="#475569">Top borrower cohorts from the SQLite circulation history, exported as a static trend pack for portfolio screenshots and recruiter walkthroughs.</text>
  <text x="40" y="118" font-size="14" fill="#475569">Range: 2026-04-01 to 2026-04-15 • Days: 15 • Generated at: 2026-04-15T12:00:00Z</text>
  <rect x="40.00" y="126.00" width="16" height="16" rx="4" fill="#2563eb" /><text x="64.00" y="139.00" font-size="14" fill="#334155">Alex</text><rect x="360.00" y="126.00" width="16" height="16" rx="4" fill="#dc2626" /><text x="384.00" y="139.00" font-size="14" fill="#334155">Priya</text><rect x="40.00" y="148.00" width="16" height="16" rx="4" fill="#059669" /><text x="64.00" y="161.00" font-size="14" fill="#334155">Sam</text><rect x="360.00" y="148.00" width="16" height="16" rx="4" fill="#7c3aed" /><text x="384.00" y="161.00" font-size="14" fill="#334155">Jordan</text>
  <g transform="translate(40, 160)"><rect width="260" height="90" rx="18" fill="#ffffff" stroke="#d6deeb" /><text x="18" y="30" font-size="14" fill="#64748b">Alex</text><text x="18" y="62" font-size="30" font-weight="700" fill="#2563eb">3</text><text x="18" y="78" font-size="12" fill="#64748b">loans touching this range, peak active 2</text></g><g transform="translate(316, 160)"><rect width="260" height="90" rx="18" fill="#ffffff" stroke="#d6deeb" /><text x="18" y="30" font-size="14" fill="#64748b">Priya</text><text x="18" y="62" font-size="30" font-weight="700" fill="#dc2626">2</text><text x="18" y="78" font-size="12" fill="#64748b">loans touching this range, peak active 2</text></g><g transform="translate(592, 160)"><rect width="260" height="90" rx="18" fill="#ffffff" stroke="#d6deeb" /><text x="18" y="30" font-size="14" fill="#64748b">Sam</text><text x="18" y="62" font-size="30" font-weight="700" fill="#059669">2</text><text x="18" y="78" font-size="12" fill="#64748b">loans touching this range, peak active 2</text></g><g transform="translate(868, 160)"><rect width="260" height="90" rx="18" fill="#ffffff" stroke="#d6deeb" /><text x="18" y="30" font-size="14" fill="#64748b">Jordan</text><text x="18" y="62" font-size="30" font-weight="700" fill="#7c3aed">1</text><text x="18" y="78" font-size="12" fill="#64748b">loans touching this range, peak active 1</text></g>
  <g role="group" aria-labelledby="borrower-active-panel-title" aria-describedby="borrower-active-panel-desc"><title id="borrower-active-panel-title">Active loans by borrower</title><desc id="borrower-active-panel-desc">Daily active loans by borrower for the top 4 borrower cohorts from 2026-04-01 to 2026-04-15. Peak value 2.</desc><rect x="40.00" y="274.00" width="520.00" height="220.00" rx="22" fill="#ffffff" stroke="#d6deeb" /><text x="58.00" y="302.00" font-size="18" font-weight="700" fill="#0f172a">Active loans by borrower</text><line x1="92.00" y1="454.00" x2="534.00" y2="454.00" stroke="#dbe4f0" stroke-width="1" /><text x="54.00" y="458.00" font-size="12" fill="#64748b">0</text><line x1="92.00" y1="385.00" x2="534.00" y2="385.00" stroke="#dbe4f0" stroke-width="1" /><text x="54.00" y="389.00" font-size="12" fill="#64748b">1</text><line x1="92.00" y1="316.00" x2="534.00" y2="316.00" stroke="#dbe4f0" stroke-width="1" /><text x="54.00" y="320.00" font-size="12" fill="#64748b">2</text><line x1="92.00" y1="454.00" x2="534.00" y2="454.00" stroke="#94a3b8" stroke-width="1.2" /><polyline fill="none" stroke="#2563eb" stroke-width="3" stroke-linecap="round" stroke-linejoin="round" points="92.00,385.00 123.57,385.00 155.14,385.00 186.71,385.00 218.29,316.00 249.86,316.00 281.43,316.00 313.00,316.00 344.57,316.00 376.14,385.00 407.71,316.00 439.29,316.00 470.86,316.00 502.43,316.00 534.00,316.00" /><circle cx="92.00" cy="385.00" r="3.5" fill="#2563eb"><title>Alex active loans by borrower on 2026-04-01: 1</title></circle><circle cx="123.57" cy="385.00" r="3.5" fill="#2563eb"><title>Alex active loans by borrower on 2026-04-02: 1</title></circle><circle cx="155.14" cy="385.00" r="3.5" fill="#2563eb"><title>Alex active loans by borrower on 2026-04-03: 1</title></circle><circle cx="186.71" cy="385.00" r="3.5" fill="#2563eb"><title>Alex active loans by borrower on 2026-04-04: 1</title></circle><circle cx="218.29" cy="316.00" r="3.5" fill="#2563eb"><title>Alex active loans by borrower on 2026-04-05: 2</title></circle><circle cx="249.86" cy="316.00" r="3.5" fill="#2563eb"><title>Alex active loans by borrower on 2026-04-06: 2</title></circle><circle cx="281.43" cy="316.00" r="3.5" fill="#2563eb"><title>Alex active loans by borrower on 2026-04-07: 2</title></circle><circle cx="313.00" cy="316.00" r="3.5" fill="#2563eb"><title>Alex active loans by borrower on 2026-04-08: 2</title></circle><circle cx="344.57" cy="316.00" r="3.5" fill="#2563eb"><title>Alex active loans by borrower on 2026-04-09: 2</title></circle><circle cx="376.14" cy="385.00" r="3.5" fill="#2563eb"><title>Alex active loans by borrower on 2026-04-10: 1</title></circle><circle cx="407.71" cy="316.00" r="3.5" fill="#2563eb"><title>Alex active loans by borrower on 2026-04-11: 2</title></circle><circle cx="439.29" cy="316.00" r="3.5" fill="#2563eb"><title>Alex active loans by borrower on 2026-04-12: 2</title></circle><circle cx="470.86" cy="316.00" r="3.5" fill="#2563eb"><title>Alex active loans by borrower on 2026-04-13: 2</title></circle><circle cx="502.43" cy="316.00" r="3.5" fill="#2563eb"><title>Alex active loans by borrower on 2026-04-14: 2</title></circle><circle cx="534.00" cy="316.00" r="3.5" fill="#2563eb"><title>Alex active loans by borrower on 2026-04-15: 2</title></circle><polyline fill="none" stroke="#dc2626" stroke-width="3" stroke-linecap="round" stroke-linejoin="round" points="92.00,454.00 123.57,454.00 155.14,454.00 186.71,454.00 218.29,454.00 249.86,385.00 281.43,385.00 313.00,385.00 344.57,385.00 376.14,385.00 407.71,385.00 439.29,316.00 470.86,385.00 502.43,385.00 534.00,385.00" /><circle cx="92.00" cy="454.00" r="3.5" fill="#dc2626"><title>Priya active loans by borrower on 2026-04-01: 0</title></circle><circle cx="123.57" cy="454.00" r="3.5" fill="#dc2626"><title>Priya active loans by borrower on 2026-04-02: 0</title></circle><circle cx="155.14" cy="454.00" r="3.5" fill="#dc2626"><title>Priya active loans by borrower on 2026-04-03: 0</title></circle><circle cx="186.71" cy="454.00" r="3.5" fill="#dc2626"><title>Priya active loans by borrower on 2026-04-04: 0</title></circle><circle cx="218.29" cy="454.00" r="3.5" fill="#dc2626"><title>Priya active loans by borrower on 2026-04-05: 0</title></circle><circle cx="249.86" cy="385.00" r="3.5" fill="#dc2626"><title>Priya active loans by borrower on 2026-04-06: 1</title></circle><circle cx="281.43" cy="385.00" r="3.5" fill="#dc2626"><title>Priya active loans by borrower on 2026-04-07: 1</title></circle><circle cx="313.00" cy="385.00" r="3.5" fill="#dc2626"><title>Priya active loans by borrower on 2026-04-08: 1</title></circle><circle cx="344.57" cy="385.00" r="3.5" fill="#dc2626"><title>Priya active loans by borrower on 2026-04-09: 1</title></circle><circle cx="376.14" cy="385.00" r="3.5" fill="#dc2626"><title>Priya active loans by borrower on 2026-04-10: 1</title></circle><circle cx="407.71" cy="385.00" r="3.5" fill="#dc2626"><title>Priya active loans by borrower on 2026-04-11: 1</title></circle><circle cx="439.29" cy="316.00" r="3.5" fill="#dc2626"><title>Priya active loans by borrower on 2026-04-12: 2</title></circle><circle cx="470.86" cy="385.00" r="3.5" fill="#dc2626"><title>Priya active loans by borrower on 2026-04-13: 1</title></circle><circle cx="502.43" cy="385.00" r="3.5" fill="#dc2626"><title>Priya active loans by borrower on 2026-04-14: 1</title></circle><circle cx="534.00" cy="385.00" r="3.5" fill="#dc2626"><title>Priya active loans by borrower on 2026-04-15: 1</title></circle><polyline fill="none" stroke="#059669" stroke-width="3" stroke-linecap="round" stroke-linejoin="round" points="92.00,454.00 123.57,385.00 155.14,385.00 186.71,385.00 218.29,385.00 249.86,385.00 281.43,385.00 313.00,385.00 344.57,316.00 376.14,316.00 407.71,316.00 439.29,316.00 470.86,316.00 502.43,385.00 534.00,385.00" /><circle cx="92.00" cy="454.00" r="3.5" fill="#059669"><title>Sam active loans by borrower on 2026-04-01: 0</title></circle><circle cx="123.57" cy="385.00" r="3.5" fill="#059669"><title>Sam active loans by borrower on 2026-04-02: 1</title></circle><circle cx="155.14" cy="385.00" r="3.5" fill="#059669"><title>Sam active loans by borrower on 2026-04-03: 1</title></circle><circle cx="186.71" cy="385.00" r="3.5" fill="#059669"><title>Sam active loans by borrower on 2026-04-04: 1</title></circle><circle cx="218.29" cy="385.00" r="3.5" fill="#059669"><title>Sam active loans by borrower on 2026-04-05: 1</title></circle><circle cx="249.86" cy="385.00" r="3.5" fill="#059669"><title>Sam active loans by borrower on 2026-04-06: 1</title></circle><circle cx="281.43" cy="385.00" r="3.5" fill="#059669"><title>Sam active loans by borrower on 2026-04-07: 1</title></circle><circle cx="313.00" cy="385.00" r="3.5" fill="#059669"><title>Sam active loans by borrower on 2026-04-08: 1</title></circle><circle cx="344.57" cy="316.00" r="3.5" fill="#059669"><title>Sam active loans by borrower on 2026-04-09: 2</title></circle><circle cx="376.14" cy="316.00" r="3.5" fill="#059669"><title>Sam active loans by borrower on 2026-04-10: 2</title></circle><circle cx="407.71" cy="316.00" r="3.5" fill="#059669"><title>Sam active loans by borrower on 2026-04-11: 2</title></circle><circle cx="439.29" cy="316.00" r="3.5" fill="#059669"><title>Sam active loans by borrower on 2026-04-12: 2</title></circle><circle cx="470.86" cy="316.00" r="3.5" fill="#059669"><title>Sam active loans by borrower on 2026-04-13: 2</title></circle><circle cx="502.43" cy="385.00" r="3.5" fill="#059669"><title>Sam active loans by borrower on 2026-04-14: 1</title></circle><circle cx="534.00" cy="385.00" r="3.5" fill="#059669"><title>Sam active loans by borrower on 2026-04-15: 1</title></circle><polyline fill="none" stroke="#7c3aed" stroke-width="3" stroke-linecap="round" stroke-linejoin="round" points="92.00,454.00 123.57,454.00 155.14,454.00 186.71,454.00 218.29,454.00 249.86,454.00 281.43,385.00 313.00,385.00 344.57,385.00 376.14,385.00 407.71,385.00 439.29,385.00 470.86,385.00 502.43,385.00 534.00,385.00" /><circle cx="92.00" cy="454.00" r="3.5" fill="#7c3aed"><title>Jordan active loans by borrower on 2026-04-01: 0</title></circle><circle cx="123.57" cy="454.00" r="3.5" fill="#7c3aed"><title>Jordan active loans by borrower on 2026-04-02: 0</title></circle><circle cx="155.14" cy="454.00" r="3.5" fill="#7c3aed"><title>Jordan active loans by borrower on 2026-04-03: 0</title></circle><circle cx="186.71" cy="454.00" r="3.5" fill="#7c3aed"><title>Jordan active loans by borrower on 2026-04-04: 0</title></circle><circle cx="218.29" cy="454.00" r="3.5" fill="#7c3aed"><title>Jordan active loans by borrower on 2026-04-05: 0</title></circle><circle cx="249.86" cy="454.00" r="3.5" fill="#7c3aed"><title>Jordan active loans by borrower on 2026-04-06: 0</title></circle><circle cx="281.43" cy="385.00" r="3.5" fill="#7c3aed"><title>Jordan active loans by borrower on 2026-04-07: 1</title></circle><circle cx="313.00" cy="385.00" r="3.5" fill="#7c3aed"><title>Jordan active loans by borrower on 2026-04-08: 1</title></circle><circle cx="344.57" cy="385.00" r="3.5" fill="#7c3aed"><title>Jordan active loans by borrower on 2026-04-09: 1</title></circle><circle cx="376.14" cy="385.00" r="3.5" fill="#7c3aed"><title>Jordan active loans by borrower on 2026-04-10: 1</title></circle><circle cx="407.71" cy="385.00" r="3.5" fill="#7c3aed"><title>Jordan active loans by borrower on 2026-04-11: 1</title></circle><circle cx="439.29" cy="385.00" r="3.5" fill="#7c3aed"><title>Jordan active loans by borrower on 2026-04-12: 1</title></circle><circle cx="470.86" cy="385.00" r="3.5" fill="#7c3aed"><title>Jordan active loans by borrower on 2026-04-13: 1</title></circle><circle cx="502.43" cy="385.00" r="3.5" fill="#7c3aed"><title>Jordan active loans by borrower on 2026-04-14: 1</title></circle><circle cx="534.00" cy="385.00" r="3.5" fill="#7c3aed"><title>Jordan active loans by borrower on 2026-04-15: 1</title></circle><text x="92.00" y="478.00" font-size="12" fill="#64748b" text-anchor="start">2026-04-01</text><text x="313.00" y="478.00" font-size="12" fill="#64748b" text-anchor="middle">2026-04-08</text><text x="534.00" y="478.00" font-size="12" fill="#64748b" text-anchor="end">2026-04-15</text></g><g role="group" aria-labelledby="borrower-overdue-panel-title" aria-describedby="borrower-overdue-panel-desc"><title id="borrower-overdue-panel-title">Overdue loans by borrower</title><desc id="borrower-overdue-panel-desc">Daily overdue loans by borrower for the top 4 borrower cohorts from 2026-04-01 to 2026-04-15. Peak value 1.</desc><rect x="600.00" y="274.00" width="520.00" height="220.00" rx="22" fill="#ffffff" stroke="#d6deeb" /><text x="618.00" y="302.00" font-size="18" font-weight="700" fill="#0f172a">Overdue loans by borrower</text><line x1="652.00" y1="454.00" x2="1094.00" y2="454.00" stroke="#dbe4f0" stroke-width="1" /><text x="614.00" y="458.00" font-size="12" fill="#64748b">0</text><line x1="652.00" y1="316.00" x2="1094.00" y2="316.00" stroke="#dbe4f0" stroke-width="1" /><text x="614.00" y="320.00" font-size="12" fill="#64748b">1</text><line x1="652.00" y1="454.00" x2="1094.00" y2="454.00" stroke="#94a3b8" stroke-width="1.2" /><polyline fill="none" stroke="#2563eb" stroke-width="3" stroke-linecap="round" stroke-linejoin="round" points="652.00,454.00 683.57,454.00 715.14,454.00 746.71,454.00 778.29,454.00 809.86,454.00 841.43,454.00 873.00,454.00 904.57,316.00 936.14,454.00 967.71,454.00 999.29,454.00 1030.86,454.00 1062.43,454.00 1094.00,454.00" /><circle cx="652.00" cy="454.00" r="3.5" fill="#2563eb"><title>Alex overdue loans by borrower on 2026-04-01: 0</title></circle><circle cx="683.57" cy="454.00" r="3.5" fill="#2563eb"><title>Alex overdue loans by borrower on 2026-04-02: 0</title></circle><circle cx="715.14" cy="454.00" r="3.5" fill="#2563eb"><title>Alex overdue loans by borrower on 2026-04-03: 0</title></circle><circle cx="746.71" cy="454.00" r="3.5" fill="#2563eb"><title>Alex overdue loans by borrower on 2026-04-04: 0</title></circle><circle cx="778.29" cy="454.00" r="3.5" fill="#2563eb"><title>Alex overdue loans by borrower on 2026-04-05: 0</title></circle><circle cx="809.86" cy="454.00" r="3.5" fill="#2563eb"><title>Alex overdue loans by borrower on 2026-04-06: 0</title></circle><circle cx="841.43" cy="454.00" r="3.5" fill="#2563eb"><title>Alex overdue loans by borrower on 2026-04-07: 0</title></circle><circle cx="873.00" cy="454.00" r="3.5" fill="#2563eb"><title>Alex overdue loans by borrower on 2026-04-08: 0</title></circle><circle cx="904.57" cy="316.00" r="3.5" fill="#2563eb"><title>Alex overdue loans by borrower on 2026-04-09: 1</title></circle><circle cx="936.14" cy="454.00" r="3.5" fill="#2563eb"><title>Alex overdue loans by borrower on 2026-04-10: 0</title></circle><circle cx="967.71" cy="454.00" r="3.5" fill="#2563eb"><title>Alex overdue loans by borrower on 2026-04-11: 0</title></circle><circle cx="999.29" cy="454.00" r="3.5" fill="#2563eb"><title>Alex overdue loans by borrower on 2026-04-12: 0</title></circle><circle cx="1030.86" cy="454.00" r="3.5" fill="#2563eb"><title>Alex overdue loans by borrower on 2026-04-13: 0</title></circle><circle cx="1062.43" cy="454.00" r="3.5" fill="#2563eb"><title>Alex overdue loans by borrower on 2026-04-14: 0</title></circle><circle cx="1094.00" cy="454.00" r="3.5" fill="#2563eb"><title>Alex overdue loans by borrower on 2026-04-15: 0</title></circle><polyline fill="none" stroke="#dc2626" stroke-width="3" stroke-linecap="round" stroke-linejoin="round" points="652.00,454.00 683.57,454.00 715.14,454.00 746.71,454.00 778.29,454.00 809.86,454.00 841.43,454.00 873.00,454.00 904.57,454.00 936.14,454.00 967.71,454.00 999.29,454.00 1030.86,454.00 1062.43,454.00 1094.00,454.00" /><circle cx="652.00" cy="454.00" r="3.5" fill="#dc2626"><title>Priya overdue loans by borrower on 2026-04-01: 0</title></circle><circle cx="683.57" cy="454.00" r="3.5" fill="#dc2626"><title>Priya overdue loans by borrower on 2026-04-02: 0</title></circle><circle cx="715.14" cy="454.00" r="3.5" fill="#dc2626"><title>Priya overdue loans by borrower on 2026-04-03: 0</title></circle><circle cx="746.71" cy="454.00" r="3.5" fill="#dc2626"><title>Priya overdue loans by borrower on 2026-04-04: 0</title></circle><circle cx="778.29" cy="454.00" r="3.5" fill="#dc2626"><title>Priya overdue loans by borrower on 2026-04-05: 0</title></circle><circle cx="809.86" cy="454.00" r="3.5" fill="#dc2626"><title>Priya overdue loans by borrower on 2026-04-06: 0</title></circle><circle cx="841.43" cy="454.00" r="3.5" fill="#dc2626"><title>Priya overdue loans by borrower on 2026-04-07: 0</title></circle><circle cx="873.00" cy="454.00" r="3.5" fill="#dc2626"><title>Priya overdue loans by borrower on 2026-04-08: 0</title></circle><circle cx="904.57" cy="454.00" r="3.5" fill="#dc2626"><title>Priya overdue loans by borrower on 2026-04-09: 0</title></circle><circle cx="936.14" cy="454.00" r="3.5" fill="#dc2626"><title>Priya overdue loans by borrower on 2026-04-10: 0</title></circle><circle cx="967.71" cy="454.00" r="3.5" fill="#dc2626"><title>Priya overdue loans by borrower on 2026-04-11: 0</title></circle><circle cx="999.29" cy="454.00" r="3.5" fill="#dc2626"><title>Priya overdue loans by borrower on 2026-04-12: 0</title></circle><circle cx="1030.86" cy="454.00" r="3.5" fill="#dc2626"><title>Priya overdue loans by borrower on 2026-04-13: 0</title></circle><circle cx="1062.43" cy="454.00" r="3.5" fill="#dc2626"><title>Priya overdue loans by borrower on 2026-04-14: 0</title></circle><circle cx="1094.00" cy="454.00" r="3.5" fill="#dc2626"><title>Priya overdue loans by borrower on 2026-04-15: 0</title></circle><polyline fill="none" stroke="#059669" stroke-width="3" stroke-linecap="round" stroke-linejoin="round" points="652.00,454.00 683.57,454.00 715.14,454.00 746.71,454.00 778.29,454.00 809.86,454.00 841.43,454.00 873.00,454.00 904.57,454.00 936.14,454.00 967.71,454.00 999.29,454.00 1030.86,316.00 1062.43,454.00 1094.00,454.00" /><circle cx="652.00" cy="454.00" r="3.5" fill="#059669"><title>Sam overdue loans by borrower on 2026-04-01: 0</title></circle><circle cx="683.57" cy="454.00" r="3.5" fill="#059669"><title>Sam overdue loans by borrower on 2026-04-02: 0</title></circle><circle cx="715.14" cy="454.00" r="3.5" fill="#059669"><title>Sam overdue loans by borrower on 2026-04-03: 0</title></circle><circle cx="746.71" cy="454.00" r="3.5" fill="#059669"><title>Sam overdue loans by borrower on 2026-04-04: 0</title></circle><circle cx="778.29" cy="454.00" r="3.5" fill="#059669"><title>Sam overdue loans by borrower on 2026-04-05: 0</title></circle><circle cx="809.86" cy="454.00" r="3.5" fill="#059669"><title>Sam overdue loans by borrower on 2026-04-06: 0</title></circle><circle cx="841.43" cy="454.00" r="3.5" fill="#059669"><title>Sam overdue loans by borrower on 2026-04-07: 0</title></circle><circle cx="873.00" cy="454.00" r="3.5" fill="#059669"><title>Sam overdue loans by borrower on 2026-04-08: 0</title></circle><circle cx="904.57" cy="454.00" r="3.5" fill="#059669"><title>Sam overdue loans by borrower on 2026-04-09: 0</title></circle><circle cx="936.14" cy="454.00" r="3.5" fill="#059669"><title>Sam overdue loans by borrower on 2026-04-10: 0</title></circle><circle cx="967.71" cy="454.00" r="3.5" fill="#059669"><title>Sam overdue loans by borrower on 2026-04-11: 0</title></circle><circle cx="999.29" cy="454.00" r="3.5" fill="#059669"><title>Sam overdue loans by borrower on 2026-04-12: 0</title></circle><circle cx="1030.86" cy="316.00" r="3.5" fill="#059669"><title>Sam overdue loans by borrower on 2026-04-13: 1</title></circle><circle cx="1062.43" cy="454.00" r="3.5" fill="#059669"><title>Sam overdue loans by borrower on 2026-04-14: 0</title></circle><circle cx="1094.00" cy="454.00" r="3.5" fill="#059669"><title>Sam overdue loans by borrower on 2026-04-15: 0</title></circle><polyline fill="none" stroke="#7c3aed" stroke-width="3" stroke-linecap="round" stroke-linejoin="round" points="652.00,454.00 683.57,454.00 715.14,454.00 746.71,454.00 778.29,454.00 809.86,454.00 841.43,454.00 873.00,454.00 904.57,454.00 936.14,454.00 967.71,454.00 999.29,454.00 1030.86,454.00 1062.43,454.00 1094.00,454.00" /><circle cx="652.00" cy="454.00" r="3.5" fill="#7c3aed"><title>Jordan overdue loans by borrower on 2026-04-01: 0</title></circle><circle cx="683.57" cy="454.00" r="3.5" fill="#7c3aed"><title>Jordan overdue loans by borrower on 2026-04-02: 0</title></circle><circle cx="715.14" cy="454.00" r="3.5" fill="#7c3aed"><title>Jordan overdue loans by borrower on 2026-04-03: 0</title></circle><circle cx="746.71" cy="454.00" r="3.5" fill="#7c3aed"><title>Jordan overdue loans by borrower on 2026-04-04: 0</title></circle><circle cx="778.29" cy="454.00" r="3.5" fill="#7c3aed"><title>Jordan overdue loans by borrower on 2026-04-05: 0</title></circle><circle cx="809.86" cy="454.00" r="3.5" fill="#7c3aed"><title>Jordan overdue loans by borrower on 2026-04-06: 0</title></circle><circle cx="841.43" cy="454.00" r="3.5" fill="#7c3aed"><title>Jordan overdue loans by borrower on 2026-04-07: 0</title></circle><circle cx="873.00" cy="454.00" r="3.5" fill="#7c3aed"><title>Jordan overdue loans by borrower on 2026-04-08: 0</title></circle><circle cx="904.57" cy="454.00" r="3.5" fill="#7c3aed"><title>Jordan overdue loans by borrower on 2026-04-09: 0</title></circle><circle cx="936.14" cy="454.00" r="3.5" fill="#7c3aed"><title>Jordan overdue loans by borrower on 2026-04-10: 0</title></circle><circle cx="967.71" cy="454.00" r="3.5" fill="#7c3aed"><title>Jordan overdue loans by borrower on 2026-04-11: 0</title></circle><circle cx="999.29" cy="454.00" r="3.5" fill="#7c3aed"><title>Jordan overdue loans by borrower on 2026-04-12: 0</title></circle><circle cx="1030.86" cy="454.00" r="3.5" fill="#7c3aed"><title>Jordan overdue loans by borrower on 2026-04-13: 0</title></circle><circle cx="1062.43" cy="454.00" r="3.5" fill="#7c3aed"><title>Jordan overdue loans by borrower on 2026-04-14: 0</title></circle><circle cx="1094.00" cy="454.00" r="3.5" fill="#7c3aed"><title>Jordan overdue loans by borrower on 2026-04-15: 0</title></circle><text x="652.00" y="478.00" font-size="12" fill="#64748b" text-anchor="start">2026-04-01</text><text x="873.00" y="478.00" font-size="12" fill="#64748b" text-anchor="middle">2026-04-08</text><text x="1094.00" y="478.00" font-size="12" fill="#64748b" text-anchor="end">2026-04-15</text></g>
  <text x="40" y="546" font-size="18" font-weight="700" fill="#0f172a">Borrower summary</text>
  <rect x="40" y="568" width="1080" height="36" rx="10" fill="#dbeafe" stroke="#bfdbfe" />
  <text x="58" y="590" font-size="13" font-weight="700" fill="#1e3a8a">Borrower</text>
  <text x="380" y="590" font-size="13" font-weight="700" fill="#1e3a8a">Loans</text>
  <text x="500" y="590" font-size="13" font-weight="700" fill="#1e3a8a">Peak active</text>
  <text x="650" y="590" font-size="13" font-weight="700" fill="#1e3a8a">Peak overdue</text>
  <text x="792" y="590" font-size="13" font-weight="700" fill="#1e3a8a">Checkouts</text>
  <text x="932" y="590" font-size="13" font-weight="700" fill="#1e3a8a">Returns</text>
  <text x="1046" y="590" font-size="13" font-weight="700" fill="#1e3a8a">Active days</text>
  <rect x="40" y="604.00" width="1080" height="30.00" fill="#ffffff" stroke="#e2e8f0" /><text x="58" y="624.00" font-size="13" fill="#0f172a">Alex</text><text x="380" y="624.00" font-size="13" fill="#0f172a">3</text><text x="500" y="624.00" font-size="13" fill="#0f172a">2</text><text x="650" y="624.00" font-size="13" fill="#0f172a">1</text><text x="792" y="624.00" font-size="13" fill="#0f172a">3</text><text x="932" y="624.00" font-size="13" fill="#0f172a">1</text><text x="1046" y="624.00" font-size="13" fill="#0f172a">15</text><rect x="40" y="634.00" width="1080" height="30.00" fill="#f8fafc" stroke="#e2e8f0" /><text x="58" y="654.00" font-size="13" fill="#0f172a">Priya</text><text x="380" y="654.00" font-size="13" fill="#0f172a">2</text><text x="500" y="654.00" font-size="13" fill="#0f172a">2</text><text x="650" y="654.00" font-size="13" fill="#0f172a">0</text><text x="792" y="654.00" font-size="13" fill="#0f172a">2</text><text x="932" y="654.00" font-size="13" fill="#0f172a">1</text><text x="1046" y="654.00" font-size="13" fill="#0f172a">10</text><rect x="40" y="664.00" width="1080" height="30.00" fill="#ffffff" stroke="#e2e8f0" /><text x="58" y="684.00" font-size="13" fill="#0f172a">Sam</text><text x="380" y="684.00" font-size="13" fill="#0f172a">2</text><text x="500" y="684.00" font-size="13" fill="#0f172a">2</text><text x="650" y="684.00" font-size="13" fill="#0f172a">1</text><text x="792" y="684.00" font-size="13" fill="#0f172a">2</text><text x="932" y="684.00" font-size="13" fill="#0f172a">1</text><text x="1046" y="684.00" font-size="13" fill="#0f172a">14</text><rect x="40" y="694.00" width="1080" height="30.00" fill="#f8fafc" stroke="#e2e8f0" /><text x="58" y="714.00" font-size="13" fill="#0f172a">Jordan</text><text x="380" y="714.00" font-size="13" fill="#0f172a">1</text><text x="500" y="714.00" font-size="13" fill="#0f172a">1</text><text x="650" y="714.00" font-size="13" fill="#0f172a">0</text><text x="792" y="714.00" font-size="13" fill="#0f172a">1</text><text x="932" y="714.00" font-size="13" fill="#0f172a">0</text><text x="1046" y="714.00" font-size="13" fill="#0f172a">9</text>
</svg>
