<svg xmlns="http://www.w3.org/2000/svg" width="960" height="540" viewBox="0 0 960 540" role="img" aria-labelledby="title desc">
  <title>Union-Find vs BFS recomputation</title>
  <desc>cumulative elapsed time while adding the same random edges</desc>
  <rect width="960" height="540" fill="#ffffff" />
  <text x="90" y="42" font-size="26" font-weight="700" fill="#111827">Union-Find vs BFS recomputation</text>
  <text x="90" y="68" font-size="14" fill="#4b5563">cumulative elapsed time while adding the same random edges</text>
  <line x1="90" y1="90" x2="90" y2="450" stroke="#111827" stroke-width="2" />
  <line x1="90" y1="450" x2="920" y2="450" stroke="#111827" stroke-width="2" />
  <line x1="90.0" y1="450.0" x2="920.0" y2="450.0" stroke="#e5e7eb" stroke-width="1" /> <text x="78.0" y="454.0" text-anchor="end" font-size="12" fill="#374151">0</text> <line x1="90.0" y1="360.0" x2="920.0" y2="360.0" stroke="#e5e7eb" stroke-width="1" /> <text x="78.0" y="364.0" text-anchor="end" font-size="12" fill="#374151">2110</text> <line x1="90.0" y1="270.0" x2="920.0" y2="270.0" stroke="#e5e7eb" stroke-width="1" /> <text x="78.0" y="274.0" text-anchor="end" font-size="12" fill="#374151">4220</text> <line x1="90.0" y1="180.0" x2="920.0" y2="180.0" stroke="#e5e7eb" stroke-width="1" /> <text x="78.0" y="184.0" text-anchor="end" font-size="12" fill="#374151">6331</text> <line x1="90.0" y1="90.0" x2="920.0" y2="90.0" stroke="#e5e7eb" stroke-width="1" /> <text x="78.0" y="94.0" text-anchor="end" font-size="12" fill="#374151">8441</text>
  <text x="24" y="270" font-size="14" fill="#111827" transform="rotate(-90 24 270)" text-anchor="middle">Elapsed milliseconds</text>
  <polyline fill="none" stroke="#2563eb" stroke-width="3" points="90.0,449.9 208.6,449.7 327.1,449.6 445.7,449.5 564.3,449.4 682.9,449.3 801.4,449.1 920.0,449.0" /> <circle cx="90.0" cy="449.9" r="4.5" fill="#2563eb" /> <circle cx="208.6" cy="449.7" r="4.5" fill="#2563eb" /> <circle cx="327.1" cy="449.6" r="4.5" fill="#2563eb" /> <circle cx="445.7" cy="449.5" r="4.5" fill="#2563eb" /> <circle cx="564.3" cy="449.4" r="4.5" fill="#2563eb" /> <circle cx="682.9" cy="449.3" r="4.5" fill="#2563eb" /> <circle cx="801.4" cy="449.1" r="4.5" fill="#2563eb" /> <circle cx="920.0" cy="449.0" r="4.5" fill="#2563eb" /> <polyline fill="none" stroke="#dc2626" stroke-width="3" points="90.0,416.3 208.6,380.2 327.1,340.2 445.7,297.1 564.3,250.5 682.9,200.4 801.4,146.9 920.0,90.0" /> <circle cx="90.0" cy="416.3" r="4.5" fill="#dc2626" /> <circle cx="208.6" cy="380.2" r="4.5" fill="#dc2626" /> <circle cx="327.1" cy="340.2" r="4.5" fill="#dc2626" /> <circle cx="445.7" cy="297.1" r="4.5" fill="#dc2626" /> <circle cx="564.3" cy="250.5" r="4.5" fill="#dc2626" /> <circle cx="682.9" cy="200.4" r="4.5" fill="#dc2626" /> <circle cx="801.4" cy="146.9" r="4.5" fill="#dc2626" /> <circle cx="920.0" cy="90.0" r="4.5" fill="#dc2626" />
  <line x1="90.0" y1="450.0" x2="90.0" y2="458.0" stroke="#6b7280" stroke-width="1" /> <text x="90.0" y="478.0" text-anchor="middle" font-size="12" fill="#374151">1250</text> <line x1="208.6" y1="450.0" x2="208.6" y2="458.0" stroke="#6b7280" stroke-width="1" /> <text x="208.6" y="478.0" text-anchor="middle" font-size="12" fill="#374151">2500</text> <line x1="327.1" y1="450.0" x2="327.1" y2="458.0" stroke="#6b7280" stroke-width="1" /> <text x="327.1" y="478.0" text-anchor="middle" font-size="12" fill="#374151">3750</text> <line x1="445.7" y1="450.0" x2="445.7" y2="458.0" stroke="#6b7280" stroke-width="1" /> <text x="445.7" y="478.0" text-anchor="middle" font-size="12" fill="#374151">5000</text> <line x1="564.3" y1="450.0" x2="564.3" y2="458.0" stroke="#6b7280" stroke-width="1" /> <text x="564.3" y="478.0" text-anchor="middle" font-size="12" fill="#374151">6250</text> <line x1="682.9" y1="450.0" x2="682.9" y2="458.0" stroke="#6b7280" stroke-width="1" /> <text x="682.9" y="478.0" text-anchor="middle" font-size="12" fill="#374151">7500</text> <line x1="801.4" y1="450.0" x2="801.4" y2="458.0" stroke="#6b7280" stroke-width="1" /> <text x="801.4" y="478.0" text-anchor="middle" font-size="12" fill="#374151">8750</text> <line x1="920.0" y1="450.0" x2="920.0" y2="458.0" stroke="#6b7280" stroke-width="1" /> <text x="920.0" y="478.0" text-anchor="middle" font-size="12" fill="#374151">10000</text> <text x="505.0" y="516.0" text-anchor="middle" font-size="14" fill="#111827">Edges processed</text>
  <rect x="700" y="82" width="14" height="14" fill="#2563eb" rx="2" /> <text x="722" y="94" font-size="13" fill="#1f2937">Union-Find</text> <rect x="700" y="104" width="14" height="14" fill="#dc2626" rx="2" /> <text x="722" y="116" font-size="13" fill="#1f2937">BFS recompute</text>
  <text x="90" y="505" font-size="13" fill="#4b5563">speedup vs recompute: 360.395x</text>
</svg>
