<svg xmlns="http://www.w3.org/2000/svg" width="960" height="540" viewBox="0 0 960 540" role="img" aria-labelledby="title desc">
  <title>Union-Find component growth</title>
  <desc>processed edges vs largest component size</desc>
  <rect width="960" height="540" fill="#ffffff" />
  <text x="90" y="42" font-size="26" font-weight="700" fill="#111827">Union-Find component growth</text>
  <text x="90" y="68" font-size="14" fill="#4b5563">processed edges vs largest component size</text>
  <line x1="90" y1="90" x2="90" y2="450" stroke="#111827" stroke-width="2" />
  <line x1="90" y1="450" x2="920" y2="450" stroke="#111827" stroke-width="2" />
  <line x1="90.0" y1="450.0" x2="920.0" y2="450.0" stroke="#e5e7eb" stroke-width="1" />
<text x="78.0" y="454.0" text-anchor="end" font-size="12" fill="#374151">0</text>
<line x1="90.0" y1="360.0" x2="920.0" y2="360.0" stroke="#e5e7eb" stroke-width="1" />
<text x="78.0" y="364.0" text-anchor="end" font-size="12" fill="#374151">1.5</text>
<line x1="90.0" y1="270.0" x2="920.0" y2="270.0" stroke="#e5e7eb" stroke-width="1" />
<text x="78.0" y="274.0" text-anchor="end" font-size="12" fill="#374151">3</text>
<line x1="90.0" y1="180.0" x2="920.0" y2="180.0" stroke="#e5e7eb" stroke-width="1" />
<text x="78.0" y="184.0" text-anchor="end" font-size="12" fill="#374151">4.5</text>
<line x1="90.0" y1="90.0" x2="920.0" y2="90.0" stroke="#e5e7eb" stroke-width="1" />
<text x="78.0" y="94.0" text-anchor="end" font-size="12" fill="#374151">6</text>
  <text x="24" y="270" font-size="14" fill="#111827" transform="rotate(-90 24 270)" text-anchor="middle">Largest component size</text>
  <polyline fill="none" stroke="#2563eb" stroke-width="3" points="90.0,270.0 505.0,150.0 920.0,90.0" />
  <circle cx="90.0" cy="270.0" r="5" fill="#2563eb" /><text x="90.0" y="258.0" text-anchor="middle" font-size="12" fill="#1f2937">2</text>
<circle cx="505.0" cy="150.0" r="5" fill="#2563eb" /><text x="505.0" y="138.0" text-anchor="middle" font-size="12" fill="#1f2937">4</text>
<circle cx="920.0" cy="90.0" r="5" fill="#2563eb" /><text x="920.0" y="78.0" text-anchor="middle" font-size="12" fill="#1f2937">6</text>
  <line x1="90.0" y1="450.0" x2="90.0" y2="458.0" stroke="#6b7280" stroke-width="1" />
<text x="90.0" y="478.0" text-anchor="middle" font-size="12" fill="#374151">2</text>
<line x1="505.0" y1="450.0" x2="505.0" y2="458.0" stroke="#6b7280" stroke-width="1" />
<text x="505.0" y="478.0" text-anchor="middle" font-size="12" fill="#374151">4</text>
<line x1="920.0" y1="450.0" x2="920.0" y2="458.0" stroke="#6b7280" stroke-width="1" />
<text x="920.0" y="478.0" text-anchor="middle" font-size="12" fill="#374151">6</text>
<text x="505.0" y="516.0" text-anchor="middle" font-size="14" fill="#111827">Edges processed</text>
  <text x="90" y="505" font-size="13" fill="#4b5563">cycle edges detected: 1</text>
</svg>
