<svg xmlns="http://www.w3.org/2000/svg" width="960" height="540" viewBox="0 0 960 540" role="img" aria-labelledby="title desc">
  <title>Union-Find benchmark throughput + graph growth</title>
  <desc>edges requested vs throughput and largest connected component</desc>
  <rect width="960" height="540" fill="#ffffff" />
  <text x="90" y="42" font-size="26" font-weight="700" fill="#111827">Union-Find benchmark throughput + graph growth</text>
  <text x="90" y="68" font-size="14" fill="#4b5563">edges requested vs throughput and largest connected component</text>
  <line x1="90" y1="90" x2="90" y2="450" stroke="#111827" stroke-width="2" />
  <line x1="870" y1="90" x2="870" y2="450" stroke="#111827" stroke-width="2" />
  <line x1="90" y1="450" x2="870" y2="450" stroke="#111827" stroke-width="2" />
  <line x1="90.0" y1="450.0" x2="870.0" y2="450.0" stroke="#e5e7eb" stroke-width="1" /> <text x="78.0" y="454.0" text-anchor="end" font-size="12" fill="#2563eb">0</text> <line x1="90.0" y1="360.0" x2="870.0" y2="360.0" stroke="#e5e7eb" stroke-width="1" /> <text x="78.0" y="364.0" text-anchor="end" font-size="12" fill="#2563eb">74427</text> <line x1="90.0" y1="270.0" x2="870.0" y2="270.0" stroke="#e5e7eb" stroke-width="1" /> <text x="78.0" y="274.0" text-anchor="end" font-size="12" fill="#2563eb">148853</text> <line x1="90.0" y1="180.0" x2="870.0" y2="180.0" stroke="#e5e7eb" stroke-width="1" /> <text x="78.0" y="184.0" text-anchor="end" font-size="12" fill="#2563eb">223280</text> <line x1="90.0" y1="90.0" x2="870.0" y2="90.0" stroke="#e5e7eb" stroke-width="1" /> <text x="78.0" y="94.0" text-anchor="end" font-size="12" fill="#2563eb">297706</text>
  <text x="882.0" y="454.0" text-anchor="start" font-size="12" fill="#7c3aed">0</text> <text x="882.0" y="364.0" text-anchor="start" font-size="12" fill="#7c3aed">375</text> <text x="882.0" y="274.0" text-anchor="start" font-size="12" fill="#7c3aed">750</text> <text x="882.0" y="184.0" text-anchor="start" font-size="12" fill="#7c3aed">1125</text> <text x="882.0" y="94.0" text-anchor="start" font-size="12" fill="#7c3aed">1500</text>
  <text x="24" y="270" font-size="14" fill="#2563eb" transform="rotate(-90 24 270)" text-anchor="middle">Edges / second</text>
  <text x="936" y="270" font-size="14" fill="#7c3aed" transform="rotate(90 936 270)" text-anchor="middle">Largest component size</text>
  <polyline fill="none" stroke="#2563eb" stroke-width="3" points="90.0,127.9 436.7,103.3 870.0,90.0" /><circle cx="90.0" cy="127.9" r="4.5" fill="#2563eb" /><circle cx="436.7" cy="103.3" r="4.5" fill="#2563eb" /><circle cx="870.0" cy="90.0" r="4.5" fill="#2563eb" />
  <polyline fill="none" stroke="#7c3aed" stroke-width="3" points="90.0,278.6 436.7,90.5 870.0,90.0" /><circle cx="90.0" cy="278.6" r="4.5" fill="#7c3aed" /><circle cx="436.7" cy="90.5" r="4.5" fill="#7c3aed" /><circle cx="870.0" cy="90.0" r="4.5" fill="#7c3aed" />
  <line x1="90.0" y1="450.0" x2="90.0" y2="458.0" stroke="#6b7280" stroke-width="1" /> <text x="90.0" y="478.0" text-anchor="middle" font-size="12" fill="#374151">1000</text> <line x1="436.7" y1="450.0" x2="436.7" y2="458.0" stroke="#6b7280" stroke-width="1" /> <text x="436.7" y="478.0" text-anchor="middle" font-size="12" fill="#374151">5000</text> <line x1="870.0" y1="450.0" x2="870.0" y2="458.0" stroke="#6b7280" stroke-width="1" /> <text x="870.0" y="478.0" text-anchor="middle" font-size="12" fill="#374151">10000</text> <text x="480.0" y="516.0" text-anchor="middle" font-size="14" fill="#111827">Edges requested</text>
  <rect x="640" y="82" width="14" height="14" fill="#2563eb" rx="2" /> <text x="662" y="94" font-size="13" fill="#1f2937">Throughput</text> <rect x="640" y="104" width="14" height="14" fill="#7c3aed" rx="2" /> <text x="662" y="116" font-size="13" fill="#1f2937">Largest component</text>
  <text x="90" y="505" font-size="13" fill="#4b5563">median throughput: 286702.278 edges/s; includes largest-component trend</text>
</svg>
