<svg xmlns="http://www.w3.org/2000/svg" width="1080" height="720" viewBox="0 0 1080 720" role="img" aria-labelledby="page-replacement-compiler-phase-shift-title page-replacement-compiler-phase-shift-desc">
  <title id="page-replacement-compiler-phase-shift-title">Page replacement frame study chart</title>
  <desc id="page-replacement-compiler-phase-shift-desc">Page-fault vs frame-count chart for benchmark compiler-phase-shift — larger compiler-style trace with parser hot loops, a code-generation scan, and optimizer table bursts</desc>
  <rect width="100%" height="100%" fill="#f8fafc" />
  <rect x="36" y="28" width="1008" height="664" rx="28" fill="#ffffff" stroke="#d7dde8" stroke-width="2" />
  <text x="84" y="64" font-size="30" font-weight="700" fill="#0f172a">Page faults vs frame count</text>
  <text x="84" y="96" font-size="16" fill="#475569">benchmark compiler-phase-shift — larger compiler-style trace with parser hot loops, a code-generation scan, and optimizer table bursts</text>
<line x1="84" y1="72" x2="112" y2="72" stroke="#ef4444" stroke-width="4" stroke-linecap="round" />
<text x="122" y="77" font-size="14" fill="#0f172a">FIFO</text>
<line x1="234" y1="72" x2="262" y2="72" stroke="#f59e0b" stroke-width="4" stroke-linecap="round" stroke-dasharray="10 8" />
<text x="272" y="77" font-size="14" fill="#0f172a">CLOCK</text>
<line x1="384" y1="72" x2="412" y2="72" stroke="#8b5cf6" stroke-width="4" stroke-linecap="round" stroke-dasharray="2 6" />
<text x="422" y="77" font-size="14" fill="#0f172a">AGING</text>
<line x1="534" y1="72" x2="562" y2="72" stroke="#0f766e" stroke-width="4" stroke-linecap="round" stroke-dasharray="12 5 3 5" />
<text x="572" y="77" font-size="14" fill="#0f172a">WSCLOCK</text>
<line x1="684" y1="72" x2="712" y2="72" stroke="#2563eb" stroke-width="4" stroke-linecap="round" stroke-dasharray="4 7" />
<text x="722" y="77" font-size="14" fill="#0f172a">LRU</text>
<line x1="834" y1="72" x2="862" y2="72" stroke="#10b981" stroke-width="4" stroke-linecap="round" />
<text x="872" y="77" font-size="14" fill="#0f172a">OPT</text>
  <line x1="84" y1="118" x2="84" y2="478" stroke="#0f172a" stroke-width="2" />
  <line x1="84" y1="478" x2="804" y2="478" stroke="#0f172a" stroke-width="2" />
<line x1="84" y1="478.00" x2="804" y2="478.00" stroke="#d7dde8" stroke-width="1" />
<text x="70" y="483.00" font-size="13" text-anchor="end" fill="#475569">0</text>
<line x1="84" y1="433.00" x2="804" y2="433.00" stroke="#d7dde8" stroke-width="1" />
<text x="70" y="438.00" font-size="13" text-anchor="end" fill="#475569">10</text>
<line x1="84" y1="388.00" x2="804" y2="388.00" stroke="#d7dde8" stroke-width="1" />
<text x="70" y="393.00" font-size="13" text-anchor="end" fill="#475569">20</text>
<line x1="84" y1="343.00" x2="804" y2="343.00" stroke="#d7dde8" stroke-width="1" />
<text x="70" y="348.00" font-size="13" text-anchor="end" fill="#475569">30</text>
<line x1="84" y1="298.00" x2="804" y2="298.00" stroke="#d7dde8" stroke-width="1" />
<text x="70" y="303.00" font-size="13" text-anchor="end" fill="#475569">40</text>
<line x1="84" y1="253.00" x2="804" y2="253.00" stroke="#d7dde8" stroke-width="1" />
<text x="70" y="258.00" font-size="13" text-anchor="end" fill="#475569">50</text>
<line x1="84" y1="208.00" x2="804" y2="208.00" stroke="#d7dde8" stroke-width="1" />
<text x="70" y="213.00" font-size="13" text-anchor="end" fill="#475569">60</text>
<line x1="84" y1="163.00" x2="804" y2="163.00" stroke="#d7dde8" stroke-width="1" />
<text x="70" y="168.00" font-size="13" text-anchor="end" fill="#475569">70</text>
<line x1="84" y1="118.00" x2="804" y2="118.00" stroke="#d7dde8" stroke-width="1" />
<text x="70" y="123.00" font-size="13" text-anchor="end" fill="#475569">80</text>
<text x="84.00" y="506" font-size="13" text-anchor="middle" fill="#475569">3</text>
<text x="228.00" y="506" font-size="13" text-anchor="middle" fill="#475569">4</text>
<text x="372.00" y="506" font-size="13" text-anchor="middle" fill="#475569">5</text>
<text x="516.00" y="506" font-size="13" text-anchor="middle" fill="#475569">6</text>
<text x="660.00" y="506" font-size="13" text-anchor="middle" fill="#475569">7</text>
<text x="804.00" y="506" font-size="13" text-anchor="middle" fill="#475569">8</text>
  <text x="444.00" y="534" font-size="14" text-anchor="middle" fill="#475569">Frames</text>
  <text x="28" y="298.00" font-size="14" fill="#475569" transform="rotate(-90 28 298.00)">Page faults</text>
<polyline fill="none" stroke="#ef4444" stroke-width="4" stroke-linecap="round" stroke-linejoin="round" points="84.00,154.00 228.00,208.00 372.00,208.00 516.00,325.00 660.00,325.00 804.00,343.00" />
<circle cx="84.00" cy="154.00" r="5.5" fill="#ef4444" stroke="#ffffff" stroke-width="2" />
<text x="84.00" y="142.00" font-size="11" text-anchor="middle" fill="#ef4444">72</text>
<circle cx="228.00" cy="208.00" r="5.5" fill="#ef4444" stroke="#ffffff" stroke-width="2" />
<text x="228.00" y="196.00" font-size="11" text-anchor="middle" fill="#ef4444">60</text>
<circle cx="372.00" cy="208.00" r="5.5" fill="#ef4444" stroke="#ffffff" stroke-width="2" />
<text x="372.00" y="196.00" font-size="11" text-anchor="middle" fill="#ef4444">60</text>
<circle cx="516.00" cy="325.00" r="5.5" fill="#ef4444" stroke="#ffffff" stroke-width="2" />
<text x="516.00" y="313.00" font-size="11" text-anchor="middle" fill="#ef4444">34</text>
<circle cx="660.00" cy="325.00" r="5.5" fill="#ef4444" stroke="#ffffff" stroke-width="2" />
<text x="660.00" y="313.00" font-size="11" text-anchor="middle" fill="#ef4444">34</text>
<circle cx="804.00" cy="343.00" r="5.5" fill="#ef4444" stroke="#ffffff" stroke-width="2" />
<text x="804.00" y="331.00" font-size="11" text-anchor="middle" fill="#ef4444">30</text>
<polyline fill="none" stroke="#f59e0b" stroke-width="4" stroke-linecap="round" stroke-linejoin="round" points="84.00,154.00 228.00,208.00 372.00,217.00 516.00,325.00 660.00,325.00 804.00,343.00" stroke-dasharray="10 8" />
<circle cx="84.00" cy="154.00" r="5.5" fill="#f59e0b" stroke="#ffffff" stroke-width="2" />
<text x="84.00" y="142.00" font-size="11" text-anchor="middle" fill="#f59e0b">72</text>
<circle cx="228.00" cy="208.00" r="5.5" fill="#f59e0b" stroke="#ffffff" stroke-width="2" />
<text x="228.00" y="196.00" font-size="11" text-anchor="middle" fill="#f59e0b">60</text>
<circle cx="372.00" cy="217.00" r="5.5" fill="#f59e0b" stroke="#ffffff" stroke-width="2" />
<text x="372.00" y="205.00" font-size="11" text-anchor="middle" fill="#f59e0b">58</text>
<circle cx="516.00" cy="325.00" r="5.5" fill="#f59e0b" stroke="#ffffff" stroke-width="2" />
<text x="516.00" y="313.00" font-size="11" text-anchor="middle" fill="#f59e0b">34</text>
<circle cx="660.00" cy="325.00" r="5.5" fill="#f59e0b" stroke="#ffffff" stroke-width="2" />
<text x="660.00" y="313.00" font-size="11" text-anchor="middle" fill="#f59e0b">34</text>
<circle cx="804.00" cy="343.00" r="5.5" fill="#f59e0b" stroke="#ffffff" stroke-width="2" />
<text x="804.00" y="331.00" font-size="11" text-anchor="middle" fill="#f59e0b">30</text>
<polyline fill="none" stroke="#8b5cf6" stroke-width="4" stroke-linecap="round" stroke-linejoin="round" points="84.00,154.00 228.00,244.00 372.00,244.00 516.00,334.00 660.00,334.00 804.00,343.00" stroke-dasharray="2 6" />
<circle cx="84.00" cy="154.00" r="5.5" fill="#8b5cf6" stroke="#ffffff" stroke-width="2" />
<text x="84.00" y="142.00" font-size="11" text-anchor="middle" fill="#8b5cf6">72</text>
<circle cx="228.00" cy="244.00" r="5.5" fill="#8b5cf6" stroke="#ffffff" stroke-width="2" />
<text x="228.00" y="232.00" font-size="11" text-anchor="middle" fill="#8b5cf6">52</text>
<circle cx="372.00" cy="244.00" r="5.5" fill="#8b5cf6" stroke="#ffffff" stroke-width="2" />
<text x="372.00" y="232.00" font-size="11" text-anchor="middle" fill="#8b5cf6">52</text>
<circle cx="516.00" cy="334.00" r="5.5" fill="#8b5cf6" stroke="#ffffff" stroke-width="2" />
<text x="516.00" y="322.00" font-size="11" text-anchor="middle" fill="#8b5cf6">32</text>
<circle cx="660.00" cy="334.00" r="5.5" fill="#8b5cf6" stroke="#ffffff" stroke-width="2" />
<text x="660.00" y="322.00" font-size="11" text-anchor="middle" fill="#8b5cf6">32</text>
<circle cx="804.00" cy="343.00" r="5.5" fill="#8b5cf6" stroke="#ffffff" stroke-width="2" />
<text x="804.00" y="331.00" font-size="11" text-anchor="middle" fill="#8b5cf6">30</text>
<polyline fill="none" stroke="#0f766e" stroke-width="4" stroke-linecap="round" stroke-linejoin="round" points="84.00,154.00 228.00,244.00 372.00,244.00 516.00,334.00 660.00,334.00 804.00,343.00" stroke-dasharray="12 5 3 5" />
<circle cx="84.00" cy="154.00" r="5.5" fill="#0f766e" stroke="#ffffff" stroke-width="2" />
<text x="84.00" y="142.00" font-size="11" text-anchor="middle" fill="#0f766e">72</text>
<circle cx="228.00" cy="244.00" r="5.5" fill="#0f766e" stroke="#ffffff" stroke-width="2" />
<text x="228.00" y="232.00" font-size="11" text-anchor="middle" fill="#0f766e">52</text>
<circle cx="372.00" cy="244.00" r="5.5" fill="#0f766e" stroke="#ffffff" stroke-width="2" />
<text x="372.00" y="232.00" font-size="11" text-anchor="middle" fill="#0f766e">52</text>
<circle cx="516.00" cy="334.00" r="5.5" fill="#0f766e" stroke="#ffffff" stroke-width="2" />
<text x="516.00" y="322.00" font-size="11" text-anchor="middle" fill="#0f766e">32</text>
<circle cx="660.00" cy="334.00" r="5.5" fill="#0f766e" stroke="#ffffff" stroke-width="2" />
<text x="660.00" y="322.00" font-size="11" text-anchor="middle" fill="#0f766e">32</text>
<circle cx="804.00" cy="343.00" r="5.5" fill="#0f766e" stroke="#ffffff" stroke-width="2" />
<text x="804.00" y="331.00" font-size="11" text-anchor="middle" fill="#0f766e">30</text>
<polyline fill="none" stroke="#2563eb" stroke-width="4" stroke-linecap="round" stroke-linejoin="round" points="84.00,154.00 228.00,244.00 372.00,244.00 516.00,334.00 660.00,334.00 804.00,343.00" stroke-dasharray="4 7" />
<circle cx="84.00" cy="154.00" r="5.5" fill="#2563eb" stroke="#ffffff" stroke-width="2" />
<text x="84.00" y="142.00" font-size="11" text-anchor="middle" fill="#2563eb">72</text>
<circle cx="228.00" cy="244.00" r="5.5" fill="#2563eb" stroke="#ffffff" stroke-width="2" />
<text x="228.00" y="232.00" font-size="11" text-anchor="middle" fill="#2563eb">52</text>
<circle cx="372.00" cy="244.00" r="5.5" fill="#2563eb" stroke="#ffffff" stroke-width="2" />
<text x="372.00" y="232.00" font-size="11" text-anchor="middle" fill="#2563eb">52</text>
<circle cx="516.00" cy="334.00" r="5.5" fill="#2563eb" stroke="#ffffff" stroke-width="2" />
<text x="516.00" y="322.00" font-size="11" text-anchor="middle" fill="#2563eb">32</text>
<circle cx="660.00" cy="334.00" r="5.5" fill="#2563eb" stroke="#ffffff" stroke-width="2" />
<text x="660.00" y="322.00" font-size="11" text-anchor="middle" fill="#2563eb">32</text>
<circle cx="804.00" cy="343.00" r="5.5" fill="#2563eb" stroke="#ffffff" stroke-width="2" />
<text x="804.00" y="331.00" font-size="11" text-anchor="middle" fill="#2563eb">30</text>
<polyline fill="none" stroke="#10b981" stroke-width="4" stroke-linecap="round" stroke-linejoin="round" points="84.00,257.50 228.00,289.00 372.00,320.50 516.00,343.00 660.00,343.00 804.00,343.00" />
<circle cx="84.00" cy="257.50" r="5.5" fill="#10b981" stroke="#ffffff" stroke-width="2" />
<text x="84.00" y="245.50" font-size="11" text-anchor="middle" fill="#10b981">49</text>
<circle cx="228.00" cy="289.00" r="5.5" fill="#10b981" stroke="#ffffff" stroke-width="2" />
<text x="228.00" y="277.00" font-size="11" text-anchor="middle" fill="#10b981">42</text>
<circle cx="372.00" cy="320.50" r="5.5" fill="#10b981" stroke="#ffffff" stroke-width="2" />
<text x="372.00" y="308.50" font-size="11" text-anchor="middle" fill="#10b981">35</text>
<circle cx="516.00" cy="343.00" r="5.5" fill="#10b981" stroke="#ffffff" stroke-width="2" />
<text x="516.00" y="331.00" font-size="11" text-anchor="middle" fill="#10b981">30</text>
<circle cx="660.00" cy="343.00" r="5.5" fill="#10b981" stroke="#ffffff" stroke-width="2" />
<text x="660.00" y="331.00" font-size="11" text-anchor="middle" fill="#10b981">30</text>
<circle cx="804.00" cy="343.00" r="5.5" fill="#10b981" stroke="#ffffff" stroke-width="2" />
<text x="804.00" y="331.00" font-size="11" text-anchor="middle" fill="#10b981">30</text>
  <rect x="64" y="514" width="952" height="142" rx="20" fill="#eef2ff" stroke="#c7d2fe" stroke-width="1.5" />
<text x="84" y="545" font-size="18" fill="#0f172a">workload: benchmark compiler-phase-shift — larger compiler-style trace with parser hot loops, a code-generation scan, and optimizer table bursts</text>
<text x="84" y="573" font-size="18" fill="#0f172a">frame range: 3 to 8 frames | WSClock τ auto (max(4, frames * 2))</text>
<text x="84" y="601" font-size="18" fill="#0f172a">best average faults: OPT (36.00)</text>
<text x="84" y="629" font-size="18" fill="#0f172a">FIFO anomaly: none in this frame range</text>
<text x="84" y="657" font-size="18" fill="#0f172a">Other regressions: none detected</text>
</svg>