<svg xmlns="http://www.w3.org/2000/svg" width="1080" height="720" viewBox="0 0 1080 720" role="img" aria-labelledby="page-replacement-mixed-locality-bursts-title page-replacement-mixed-locality-bursts-desc">
  <title id="page-replacement-mixed-locality-bursts-title">Page replacement frame study chart</title>
  <desc id="page-replacement-mixed-locality-bursts-desc">Page-fault vs frame-count chart for preset mixed-locality-bursts — alternates hot-loop bursts with cold misses to mimic uneven interactive workloads</desc>
  <rect width="100%" height="100%" fill="#f8fafc" />
  <rect x="36" y="28" width="1008" height="664" rx="28" fill="#ffffff" stroke="#d7dde8" stroke-width="2" />
  <text x="84" y="64" font-size="30" font-weight="700" fill="#0f172a">Page faults vs frame count</text>
  <text x="84" y="96" font-size="16" fill="#475569">preset mixed-locality-bursts — alternates hot-loop bursts with cold misses to mimic uneven interactive workloads</text>
<line x1="84" y1="72" x2="112" y2="72" stroke="#ef4444" stroke-width="4" stroke-linecap="round" />
<text x="122" y="77" font-size="14" fill="#0f172a">FIFO</text>
<line x1="234" y1="72" x2="262" y2="72" stroke="#f59e0b" stroke-width="4" stroke-linecap="round" stroke-dasharray="10 8" />
<text x="272" y="77" font-size="14" fill="#0f172a">CLOCK</text>
<line x1="384" y1="72" x2="412" y2="72" stroke="#2563eb" stroke-width="4" stroke-linecap="round" stroke-dasharray="4 7" />
<text x="422" y="77" font-size="14" fill="#0f172a">LRU</text>
<line x1="534" y1="72" x2="562" y2="72" stroke="#10b981" stroke-width="4" stroke-linecap="round" />
<text x="572" y="77" font-size="14" fill="#0f172a">OPT</text>
  <line x1="84" y1="118" x2="84" y2="478" stroke="#0f172a" stroke-width="2" />
  <line x1="84" y1="478" x2="804" y2="478" stroke="#0f172a" stroke-width="2" />
<line x1="84" y1="478.00" x2="804" y2="478.00" stroke="#d7dde8" stroke-width="1" />
<text x="70" y="483.00" font-size="13" text-anchor="end" fill="#475569">0</text>
<line x1="84" y1="426.57" x2="804" y2="426.57" stroke="#d7dde8" stroke-width="1" />
<text x="70" y="431.57" font-size="13" text-anchor="end" fill="#475569">2</text>
<line x1="84" y1="375.14" x2="804" y2="375.14" stroke="#d7dde8" stroke-width="1" />
<text x="70" y="380.14" font-size="13" text-anchor="end" fill="#475569">4</text>
<line x1="84" y1="323.71" x2="804" y2="323.71" stroke="#d7dde8" stroke-width="1" />
<text x="70" y="328.71" font-size="13" text-anchor="end" fill="#475569">6</text>
<line x1="84" y1="272.29" x2="804" y2="272.29" stroke="#d7dde8" stroke-width="1" />
<text x="70" y="277.29" font-size="13" text-anchor="end" fill="#475569">8</text>
<line x1="84" y1="220.86" x2="804" y2="220.86" stroke="#d7dde8" stroke-width="1" />
<text x="70" y="225.86" font-size="13" text-anchor="end" fill="#475569">10</text>
<line x1="84" y1="169.43" x2="804" y2="169.43" stroke="#d7dde8" stroke-width="1" />
<text x="70" y="174.43" font-size="13" text-anchor="end" fill="#475569">12</text>
<line x1="84" y1="118.00" x2="804" y2="118.00" stroke="#d7dde8" stroke-width="1" />
<text x="70" y="123.00" font-size="13" text-anchor="end" fill="#475569">14</text>
<text x="84.00" y="506" font-size="13" text-anchor="middle" fill="#475569">3</text>
<text x="228.00" y="506" font-size="13" text-anchor="middle" fill="#475569">4</text>
<text x="372.00" y="506" font-size="13" text-anchor="middle" fill="#475569">5</text>
<text x="516.00" y="506" font-size="13" text-anchor="middle" fill="#475569">6</text>
<text x="660.00" y="506" font-size="13" text-anchor="middle" fill="#475569">7</text>
<text x="804.00" y="506" font-size="13" text-anchor="middle" fill="#475569">8</text>
  <text x="444.00" y="534" font-size="14" text-anchor="middle" fill="#475569">Frames</text>
  <text x="28" y="298.00" font-size="14" fill="#475569" transform="rotate(-90 28 298.00)">Page faults</text>
<polyline fill="none" stroke="#ef4444" stroke-width="4" stroke-linecap="round" stroke-linejoin="round" points="84.00,118.00 228.00,169.43 372.00,220.86 516.00,323.71 660.00,323.71 804.00,323.71" />
<circle cx="84.00" cy="118.00" r="5.5" fill="#ef4444" stroke="#ffffff" stroke-width="2" />
<text x="84.00" y="106.00" font-size="11" text-anchor="middle" fill="#ef4444">14</text>
<circle cx="228.00" cy="169.43" r="5.5" fill="#ef4444" stroke="#ffffff" stroke-width="2" />
<text x="228.00" y="157.43" font-size="11" text-anchor="middle" fill="#ef4444">12</text>
<circle cx="372.00" cy="220.86" r="5.5" fill="#ef4444" stroke="#ffffff" stroke-width="2" />
<text x="372.00" y="208.86" font-size="11" text-anchor="middle" fill="#ef4444">10</text>
<circle cx="516.00" cy="323.71" r="5.5" fill="#ef4444" stroke="#ffffff" stroke-width="2" />
<text x="516.00" y="311.71" font-size="11" text-anchor="middle" fill="#ef4444">6</text>
<circle cx="660.00" cy="323.71" r="5.5" fill="#ef4444" stroke="#ffffff" stroke-width="2" />
<text x="660.00" y="311.71" font-size="11" text-anchor="middle" fill="#ef4444">6</text>
<circle cx="804.00" cy="323.71" r="5.5" fill="#ef4444" stroke="#ffffff" stroke-width="2" />
<text x="804.00" y="311.71" font-size="11" text-anchor="middle" fill="#ef4444">6</text>
<polyline fill="none" stroke="#f59e0b" stroke-width="4" stroke-linecap="round" stroke-linejoin="round" points="84.00,118.00 228.00,169.43 372.00,220.86 516.00,323.71 660.00,323.71 804.00,323.71" stroke-dasharray="10 8" />
<circle cx="84.00" cy="118.00" r="5.5" fill="#f59e0b" stroke="#ffffff" stroke-width="2" />
<text x="84.00" y="106.00" font-size="11" text-anchor="middle" fill="#f59e0b">14</text>
<circle cx="228.00" cy="169.43" r="5.5" fill="#f59e0b" stroke="#ffffff" stroke-width="2" />
<text x="228.00" y="157.43" font-size="11" text-anchor="middle" fill="#f59e0b">12</text>
<circle cx="372.00" cy="220.86" r="5.5" fill="#f59e0b" stroke="#ffffff" stroke-width="2" />
<text x="372.00" y="208.86" font-size="11" text-anchor="middle" fill="#f59e0b">10</text>
<circle cx="516.00" cy="323.71" r="5.5" fill="#f59e0b" stroke="#ffffff" stroke-width="2" />
<text x="516.00" y="311.71" font-size="11" text-anchor="middle" fill="#f59e0b">6</text>
<circle cx="660.00" cy="323.71" r="5.5" fill="#f59e0b" stroke="#ffffff" stroke-width="2" />
<text x="660.00" y="311.71" font-size="11" text-anchor="middle" fill="#f59e0b">6</text>
<circle cx="804.00" cy="323.71" r="5.5" fill="#f59e0b" stroke="#ffffff" stroke-width="2" />
<text x="804.00" y="311.71" font-size="11" text-anchor="middle" fill="#f59e0b">6</text>
<polyline fill="none" stroke="#2563eb" stroke-width="4" stroke-linecap="round" stroke-linejoin="round" points="84.00,169.43 228.00,272.29 372.00,272.29 516.00,323.71 660.00,323.71 804.00,323.71" stroke-dasharray="4 7" />
<circle cx="84.00" cy="169.43" r="5.5" fill="#2563eb" stroke="#ffffff" stroke-width="2" />
<text x="84.00" y="157.43" font-size="11" text-anchor="middle" fill="#2563eb">12</text>
<circle cx="228.00" cy="272.29" r="5.5" fill="#2563eb" stroke="#ffffff" stroke-width="2" />
<text x="228.00" y="260.29" font-size="11" text-anchor="middle" fill="#2563eb">8</text>
<circle cx="372.00" cy="272.29" r="5.5" fill="#2563eb" stroke="#ffffff" stroke-width="2" />
<text x="372.00" y="260.29" font-size="11" text-anchor="middle" fill="#2563eb">8</text>
<circle cx="516.00" cy="323.71" r="5.5" fill="#2563eb" stroke="#ffffff" stroke-width="2" />
<text x="516.00" y="311.71" font-size="11" text-anchor="middle" fill="#2563eb">6</text>
<circle cx="660.00" cy="323.71" r="5.5" fill="#2563eb" stroke="#ffffff" stroke-width="2" />
<text x="660.00" y="311.71" font-size="11" text-anchor="middle" fill="#2563eb">6</text>
<circle cx="804.00" cy="323.71" r="5.5" fill="#2563eb" stroke="#ffffff" stroke-width="2" />
<text x="804.00" y="311.71" font-size="11" text-anchor="middle" fill="#2563eb">6</text>
<polyline fill="none" stroke="#10b981" stroke-width="4" stroke-linecap="round" stroke-linejoin="round" points="84.00,272.29 228.00,298.00 372.00,323.71 516.00,323.71 660.00,323.71 804.00,323.71" />
<circle cx="84.00" cy="272.29" r="5.5" fill="#10b981" stroke="#ffffff" stroke-width="2" />
<text x="84.00" y="260.29" font-size="11" text-anchor="middle" fill="#10b981">8</text>
<circle cx="228.00" cy="298.00" r="5.5" fill="#10b981" stroke="#ffffff" stroke-width="2" />
<text x="228.00" y="286.00" font-size="11" text-anchor="middle" fill="#10b981">7</text>
<circle cx="372.00" cy="323.71" r="5.5" fill="#10b981" stroke="#ffffff" stroke-width="2" />
<text x="372.00" y="311.71" font-size="11" text-anchor="middle" fill="#10b981">6</text>
<circle cx="516.00" cy="323.71" r="5.5" fill="#10b981" stroke="#ffffff" stroke-width="2" />
<text x="516.00" y="311.71" font-size="11" text-anchor="middle" fill="#10b981">6</text>
<circle cx="660.00" cy="323.71" r="5.5" fill="#10b981" stroke="#ffffff" stroke-width="2" />
<text x="660.00" y="311.71" font-size="11" text-anchor="middle" fill="#10b981">6</text>
<circle cx="804.00" cy="323.71" r="5.5" fill="#10b981" stroke="#ffffff" stroke-width="2" />
<text x="804.00" y="311.71" font-size="11" text-anchor="middle" fill="#10b981">6</text>
  <rect x="64" y="514" width="952" height="142" rx="20" fill="#eef2ff" stroke="#c7d2fe" stroke-width="1.5" />
<text x="84" y="545" font-size="18" fill="#0f172a">workload: preset mixed-locality-bursts — alternates hot-loop bursts with cold misses to mimic uneven interactive workloads</text>
<text x="84" y="573" font-size="18" fill="#0f172a">frame range: 3 to 8 frames | best average faults: OPT (6.50)</text>
<text x="84" y="601" font-size="18" fill="#0f172a">FIFO anomaly: none in this frame range</text>
<text x="84" y="629" font-size="18" fill="#0f172a">Other regressions: none detected</text>
</svg>