<svg xmlns="http://www.w3.org/2000/svg" width="1480" height="660" viewBox="0 0 1480 660" role="img" aria-labelledby="page-replacement-aggregate-title page-replacement-aggregate-desc">
  <title id="page-replacement-aggregate-title">Page replacement aggregate workload comparison</title>
  <desc id="page-replacement-aggregate-desc">Normalized average page-fault rate by workload and algorithm across a shared frame range.</desc>
  <rect width="100%" height="100%" fill="#f8fafc" />
  <rect x="28" y="24" width="1424" height="612" rx="28" fill="#ffffff" stroke="#d7dde8" stroke-width="2" />
  <text x="84" y="64" font-size="30" font-weight="700" fill="#0f172a">Normalized average page-fault rate by workload</text>
  <text x="84" y="96" font-size="16" fill="#475569">Cross-workload aggregate dashboard for page-replacement-lab with one grouped bar set per workload.</text>
<rect x="340" y="74" width="26" height="12" rx="6" fill="#ef4444" />
<text x="376" y="84" font-size="14" fill="#0f172a">FIFO</text>
<rect x="510" y="74" width="26" height="12" rx="6" fill="#f59e0b" />
<text x="546" y="84" font-size="14" fill="#0f172a">CLOCK</text>
<rect x="680" y="74" width="26" height="12" rx="6" fill="#8b5cf6" />
<text x="716" y="84" font-size="14" fill="#0f172a">AGING</text>
<rect x="850" y="74" width="26" height="12" rx="6" fill="#2563eb" />
<text x="886" y="84" font-size="14" fill="#0f172a">LRU</text>
<rect x="1020" y="74" width="26" height="12" rx="6" fill="#10b981" />
<text x="1056" y="84" font-size="14" fill="#0f172a">OPT</text>
  <line x1="340" y1="156" x2="340" y2="510" stroke="#0f172a" stroke-width="2" />
  <line x1="340" y1="510" x2="1392" y2="510" stroke="#0f172a" stroke-width="2" />
<line x1="340.00" y1="156" x2="340.00" y2="510" stroke="#d7dde8" stroke-width="1" />
<text x="340.00" y="540" font-size="13" text-anchor="middle" fill="#475569">0.00%</text>
<line x1="603.00" y1="156" x2="603.00" y2="510" stroke="#d7dde8" stroke-width="1" />
<text x="603.00" y="540" font-size="13" text-anchor="middle" fill="#475569">20.00%</text>
<line x1="866.00" y1="156" x2="866.00" y2="510" stroke="#d7dde8" stroke-width="1" />
<text x="866.00" y="540" font-size="13" text-anchor="middle" fill="#475569">40.00%</text>
<line x1="1129.00" y1="156" x2="1129.00" y2="510" stroke="#d7dde8" stroke-width="1" />
<text x="1129.00" y="540" font-size="13" text-anchor="middle" fill="#475569">60.00%</text>
<line x1="1392.00" y1="156" x2="1392.00" y2="510" stroke="#d7dde8" stroke-width="1" />
<text x="1392.00" y="540" font-size="13" text-anchor="middle" fill="#475569">80.00%</text>
  <text x="866.00" y="568" font-size="14" text-anchor="middle" fill="#475569">Average page-fault rate across frame counts</text>
<text x="36" y="174" font-size="18" font-weight="700" fill="#0f172a"><tspan font-family="SFMono-Regular, ui-monospace, monospace">classic-belady</tspan></text>
<text x="36" y="196" font-size="13" fill="#475569">preset · len 12 · winner OPT</text>
<line x1="36" y1="262" x2="1444" y2="262" stroke="#e2e8f0" stroke-width="1" />
<text x="250" y="209" font-size="13" text-anchor="end" fill="#475569">FIFO</text>
<rect x="340" y="200" width="712.29" height="11" rx="5.5" fill="#ef4444" />
<text x="1062.29" y="209" font-size="12" fill="#ef4444">54.17%</text>
<text x="250" y="228" font-size="13" text-anchor="end" fill="#475569">CLOCK</text>
<rect x="340" y="219" width="712.29" height="11" rx="5.5" fill="#f59e0b" />
<text x="1062.29" y="228" font-size="12" fill="#f59e0b">54.17%</text>
<text x="250" y="247" font-size="13" text-anchor="end" fill="#475569">AGING</text>
<rect x="340" y="238" width="694.03" height="11" rx="5.5" fill="#8b5cf6" />
<text x="1044.03" y="247" font-size="12" fill="#8b5cf6">52.78%</text>
<text x="250" y="266" font-size="13" text-anchor="end" fill="#475569">LRU</text>
<rect x="340" y="257" width="694.03" height="11" rx="5.5" fill="#2563eb" />
<text x="1044.03" y="266" font-size="12" fill="#2563eb">52.78%</text>
<text x="250" y="285" font-size="13" text-anchor="end" fill="#475569">OPT</text>
<rect x="340" y="276" width="602.71" height="11" rx="5.5" fill="#10b981" />
<text x="952.71" y="285" font-size="12" fill="#10b981">45.83%</text>
<text x="36" y="292" font-size="18" font-weight="700" fill="#0f172a"><tspan font-family="SFMono-Regular, ui-monospace, monospace">compiler-phase-shift</tspan></text>
<text x="36" y="314" font-size="13" fill="#475569">benchmark · len 72 · winner OPT</text>
<line x1="36" y1="380" x2="1444" y2="380" stroke="#e2e8f0" stroke-width="1" />
<text x="250" y="327" font-size="13" text-anchor="end" fill="#475569">FIFO</text>
<rect x="340" y="318" width="882.75" height="11" rx="5.5" fill="#ef4444" />
<text x="1232.75" y="327" font-size="12" fill="#ef4444">67.13%</text>
<text x="250" y="346" font-size="13" text-anchor="end" fill="#475569">CLOCK</text>
<rect x="340" y="337" width="876.67" height="11" rx="5.5" fill="#f59e0b" />
<text x="1226.67" y="346" font-size="12" fill="#f59e0b">66.67%</text>
<text x="250" y="365" font-size="13" text-anchor="end" fill="#475569">AGING</text>
<rect x="340" y="356" width="821.88" height="11" rx="5.5" fill="#8b5cf6" />
<text x="1171.88" y="365" font-size="12" fill="#8b5cf6">62.50%</text>
<text x="250" y="384" font-size="13" text-anchor="end" fill="#475569">LRU</text>
<rect x="340" y="375" width="821.88" height="11" rx="5.5" fill="#2563eb" />
<text x="1171.88" y="384" font-size="12" fill="#2563eb">62.50%</text>
<text x="250" y="403" font-size="13" text-anchor="end" fill="#475569">OPT</text>
<rect x="340" y="394" width="657.50" height="11" rx="5.5" fill="#10b981" />
<text x="1007.50" y="403" font-size="12" fill="#10b981">50.00%</text>
<text x="36" y="410" font-size="18" font-weight="700" fill="#0f172a"><tspan font-family="SFMono-Regular, ui-monospace, monospace">mobile-app-session</tspan></text>
<text x="36" y="432" font-size="13" fill="#475569">custom · len 60 · winner OPT</text>
<line x1="36" y1="498" x2="1444" y2="498" stroke="#e2e8f0" stroke-width="1" />
<text x="250" y="445" font-size="13" text-anchor="end" fill="#475569">FIFO</text>
<rect x="340" y="436" width="964.33" height="11" rx="5.5" fill="#ef4444" />
<text x="1314.33" y="445" font-size="12" fill="#ef4444">73.33%</text>
<text x="250" y="464" font-size="13" text-anchor="end" fill="#475569">CLOCK</text>
<rect x="340" y="455" width="964.33" height="11" rx="5.5" fill="#f59e0b" />
<text x="1314.33" y="464" font-size="12" fill="#f59e0b">73.33%</text>
<text x="250" y="483" font-size="13" text-anchor="end" fill="#475569">AGING</text>
<rect x="340" y="474" width="891.28" height="11" rx="5.5" fill="#8b5cf6" />
<text x="1241.28" y="483" font-size="12" fill="#8b5cf6">67.78%</text>
<text x="250" y="502" font-size="13" text-anchor="end" fill="#475569">LRU</text>
<rect x="340" y="493" width="891.28" height="11" rx="5.5" fill="#2563eb" />
<text x="1241.28" y="502" font-size="12" fill="#2563eb">67.78%</text>
<text x="250" y="521" font-size="13" text-anchor="end" fill="#475569">OPT</text>
<rect x="340" y="512" width="697.68" height="11" rx="5.5" fill="#10b981" />
<text x="1047.68" y="521" font-size="12" fill="#10b981">53.06%</text>
  <rect x="64" y="528" width="1352" height="112" rx="20" fill="#eef2ff" stroke="#c7d2fe" stroke-width="1.5" />
<text x="84" y="558" font-size="18" fill="#0f172a">frame range: 3 to 8 frames across 3 workloads (1 benchmarks, 1 custom traces)</text>
<text x="84" y="582" font-size="18" fill="#0f172a">overall best normalized average fault rate: OPT</text>
<text x="84" y="606" font-size="18" fill="#0f172a">winner tally: FIFO × 0; CLOCK × 0; AGING × 0; LRU × 0; OPT × 3</text>
<text x="84" y="630" font-size="18" fill="#0f172a">FIFO anomalies in 1 workloads; non-FIFO regressions in 1 workloads</text>
</svg>