<svg xmlns="http://www.w3.org/2000/svg" viewBox="0 0 1200 672" width="1200" height="672" preserveAspectRatio="xMidYMin meet" role="img" aria-labelledby="svg-title svg-desc">
  <title id="svg-title">routing_demo vs routing_shift_demo route diff summary card</title>
  <desc id="svg-desc">Source A. Changed edges 2. Changed routes 2. Same-cost reroutes 1.</desc>
  <style>
    text { font-family: Inter, "Segoe UI", ui-sans-serif, system-ui, -apple-system, BlinkMacSystemFont, sans-serif; fill: #10233d; }
    .eyebrow { font-size: 16px; font-weight: 700; letter-spacing: 0.08em; text-transform: uppercase; fill: #2563eb; }
    .headline { font-size: 30px; font-weight: 700; }
    .lede { font-size: 16px; fill: #51627a; }
    .meta { font-size: 15px; fill: #51627a; }
    .sectionLabel { font-size: 16px; font-weight: 700; fill: #1d4ed8; }
    .cardLabel { font-size: 15px; fill: #51627a; }
    .cardValue { font-size: 32px; font-weight: 700; }
    .cardNote { font-size: 13px; fill: #51627a; }
    .routeNode { font-size: 20px; font-weight: 700; }
    .routeBadge { font-size: 14px; font-weight: 700; fill: #2563eb; }
    .routeSummary { font-size: 16px; fill: #10233d; }
    .smallMono { font-family: "SFMono-Regular", ui-monospace, SFMono-Regular, Menlo, Consolas, monospace; font-size: 14px; fill: #334155; }
    .footer { font-size: 14px; fill: #51627a; }
  </style>
  <rect width="1200" height="672" fill="#f8fafc" rx="28" /><rect x="24" y="24" width="1152" height="184" rx="24" fill="#ffffff" stroke="#dbe3ef" /><text x="52" y="58" class="eyebrow"><tspan x="52" dy="0">Graph routing diff snapshot</tspan></text><text x="52" y="94" class="headline"><tspan x="52" dy="0">routing_demo vs routing_shift_demo</tspan></text><text x="52" y="126" class="lede"><tspan x="52" dy="0">Source A; baseline negative cycle none; candidate negative cycle none.</tspan></text><text x="52" y="168" class="meta"><tspan x="52" dy="0">Edge changes: 2</tspan><tspan x="52" dy="18">Changed routes: 2</tspan><tspan x="52" dy="18">Unchanged routes: 2</tspan></text><rect x="774" y="48" width="364" height="136" rx="20" fill="#eff6ff" stroke="#bfdbfe" /><text x="798" y="78" class="sectionLabel"><tspan x="798" dy="0">Edge preview</tspan></text><text x="798" y="108" class="smallMono"><tspan x="798" dy="0">C→B: -1→3</tspan><tspan x="798" dy="18">C→D: 5→1</tspan></text><rect x="44" y="224" width="204" height="112" rx="20" fill="#ffffff" stroke="#dbe3ef" /><text x="62" y="258" class="cardLabel"><tspan x="62" dy="0">Changed edges</tspan></text><text x="62" y="296" class="cardValue"><tspan x="62" dy="0">2</tspan></text><text x="62" y="318" class="cardNote"><tspan x="62" dy="0">edge-weight or</tspan><tspan x="62" dy="15">edge-presence…</tspan></text><rect x="262" y="224" width="204" height="112" rx="20" fill="#ffffff" stroke="#dbe3ef" /><text x="280" y="258" class="cardLabel"><tspan x="280" dy="0">Changed routes</tspan></text><text x="280" y="296" class="cardValue"><tspan x="280" dy="0">2</tspan></text><text x="280" y="318" class="cardNote"><tspan x="280" dy="0">route-table entries that</tspan><tspan x="280" dy="15">changed</tspan></text><rect x="480" y="224" width="204" height="112" rx="20" fill="#ffffff" stroke="#dbe3ef" /><text x="498" y="258" class="cardLabel"><tspan x="498" dy="0">Same-cost reroutes</tspan></text><text x="498" y="296" class="cardValue"><tspan x="498" dy="0">1</tspan></text><text x="498" y="318" class="cardNote"><tspan x="498" dy="0">paths that shifted</tspan><tspan x="498" dy="15">without a cost delta</tspan></text><rect x="698" y="224" width="204" height="112" rx="20" fill="#ffffff" stroke="#dbe3ef" /><text x="716" y="258" class="cardLabel"><tspan x="716" dy="0">Predecessor changes</tspan></text><text x="716" y="296" class="cardValue"><tspan x="716" dy="0">2</tspan></text><text x="716" y="318" class="cardNote"><tspan x="716" dy="0">Bellman-Ford predecessor</tspan><tspan x="716" dy="15">swaps</tspan></text><rect x="916" y="224" width="204" height="112" rx="20" fill="#ffffff" stroke="#dbe3ef" /><text x="934" y="258" class="cardLabel"><tspan x="934" dy="0">Cost-changing routes</tspan></text><text x="934" y="296" class="cardValue"><tspan x="934" dy="0">1</tspan></text><text x="934" y="318" class="cardNote"><tspan x="934" dy="0">routes whose total cost</tspan><tspan x="934" dy="15">changed</tspan></text><rect x="24" y="354" width="1152" height="124" rx="22" fill="#ffffff" stroke="#dbe3ef" /><rect x="24" y="354" width="12" height="124" rx="6" fill="#2563eb" /><text x="52" y="382" class="routeNode"><tspan x="52" dy="0">Node B</tspan></text><text x="52" y="406" class="routeBadge"><tspan x="52" dy="0">cost · predecessor · path</tspan></text><text x="52" y="436" class="routeSummary"><tspan x="52" dy="0">cost 1 -&gt; 4; predecessor C -&gt; A; path: [A -&gt; C -&gt; B] =&gt; [A -&gt; B]</tspan></text><text x="760" y="394" class="smallMono"><tspan x="760" dy="0">cost 1 → 4</tspan><tspan x="760" dy="18">predecessor C → A</tspan><tspan x="760" dy="18">delta +3</tspan></text><text x="760" y="450" class="smallMono"><tspan x="760" dy="0">baseline: A -&gt; C -&gt; B</tspan><tspan x="760" dy="17">candidate: A -&gt; B</tspan></text><rect x="24" y="492" width="1152" height="124" rx="22" fill="#ffffff" stroke="#dbe3ef" /><rect x="24" y="492" width="12" height="124" rx="6" fill="#7c3aed" /><text x="52" y="520" class="routeNode"><tspan x="52" dy="0">Node D</tspan></text><text x="52" y="544" class="routeBadge"><tspan x="52" dy="0">predecessor · path</tspan></text><text x="52" y="574" class="routeSummary"><tspan x="52" dy="0">predecessor B -&gt; C; path changed at same cost: [A -&gt; C -&gt; B -&gt; D] =&gt; [A -&gt;</tspan><tspan x="52" dy="18">C -&gt; D]</tspan></text><text x="760" y="532" class="smallMono"><tspan x="760" dy="0">cost 3 → 3</tspan><tspan x="760" dy="18">predecessor B → C</tspan><tspan x="760" dy="18">delta unchanged</tspan></text><text x="760" y="588" class="smallMono"><tspan x="760" dy="0">baseline: A -&gt; C -&gt; B -&gt; D</tspan><tspan x="760" dy="17">candidate: A -&gt; C -&gt; D</tspan></text><text x="38" y="654" class="footer"><tspan x="38" dy="0">Deterministic static artifact for README thumbnails, slide decks, and quick routing-change reviews.</tspan></text>
</svg>
