<svg xmlns="http://www.w3.org/2000/svg" width="1280" height="564" viewBox="0 0 1280 564" role="img" aria-labelledby="schedule-title schedule-desc">
  <title id="schedule-title">Dependency graph schedule — Generated Release Pipeline — 3 workers — critical-first</title>
  <desc id="schedule-desc">Worker timeline for Dependency graph schedule — Generated Release Pipeline — 3 workers — critical-first with 3 workers, strategy critical-first, and makespan 24.</desc>
  <rect width="100%" height="100%" fill="#f8fafc" />
  <rect x="20" y="20" width="1240" height="524" rx="28" fill="#ffffff" stroke="#d7dde8" stroke-width="2" />
  <text x="48" y="62" font-size="30" font-weight="700" fill="#0f172a">Dependency graph schedule — Generated Release Pipeline — 3 workers — critical-first</text>
  <text x="48" y="92" font-size="16" fill="#475569">3 workers · critical-first · makespan 24 · utilization 41.7% · idle capacity 42</text>
  <text x="48" y="118" font-size="14" fill="#64748b">Unlimited bound 21 · theoretical lower bound 21 · dispatch order freeze-release-branch, build-macos, build-linux, build-windows, sign-linux, assemble-release-notes, sign-macos, sign-windows, publish-candidates, deploy-staging, verify-staging, canary-10pct, verify-canary-01, canary-50pct, verify-canary-02, canary-90pct, verify-canary-03, full-rollout, announce-release</text>
  <line x1="190" y1="138" x2="190" y2="350" stroke="#0f172a" stroke-width="2" />
  <line x1="190" y1="350" x2="1240" y2="350" stroke="#0f172a" stroke-width="2" />
  <line x1="190.00" y1="138" x2="190.00" y2="350" stroke="#dbe4f0" stroke-width="1" />
  <text x="190.00" y="130" font-size="13" text-anchor="middle" fill="#64748b">0</text>
  <line x1="277.50" y1="138" x2="277.50" y2="350" stroke="#dbe4f0" stroke-width="1" />
  <text x="277.50" y="130" font-size="13" text-anchor="middle" fill="#64748b">2</text>
  <line x1="365.00" y1="138" x2="365.00" y2="350" stroke="#dbe4f0" stroke-width="1" />
  <text x="365.00" y="130" font-size="13" text-anchor="middle" fill="#64748b">4</text>
  <line x1="452.50" y1="138" x2="452.50" y2="350" stroke="#dbe4f0" stroke-width="1" />
  <text x="452.50" y="130" font-size="13" text-anchor="middle" fill="#64748b">6</text>
  <line x1="540.00" y1="138" x2="540.00" y2="350" stroke="#dbe4f0" stroke-width="1" />
  <text x="540.00" y="130" font-size="13" text-anchor="middle" fill="#64748b">8</text>
  <line x1="627.50" y1="138" x2="627.50" y2="350" stroke="#dbe4f0" stroke-width="1" />
  <text x="627.50" y="130" font-size="13" text-anchor="middle" fill="#64748b">10</text>
  <line x1="715.00" y1="138" x2="715.00" y2="350" stroke="#dbe4f0" stroke-width="1" />
  <text x="715.00" y="130" font-size="13" text-anchor="middle" fill="#64748b">12</text>
  <line x1="802.50" y1="138" x2="802.50" y2="350" stroke="#dbe4f0" stroke-width="1" />
  <text x="802.50" y="130" font-size="13" text-anchor="middle" fill="#64748b">14</text>
  <line x1="890.00" y1="138" x2="890.00" y2="350" stroke="#dbe4f0" stroke-width="1" />
  <text x="890.00" y="130" font-size="13" text-anchor="middle" fill="#64748b">16</text>
  <line x1="977.50" y1="138" x2="977.50" y2="350" stroke="#dbe4f0" stroke-width="1" />
  <text x="977.50" y="130" font-size="13" text-anchor="middle" fill="#64748b">18</text>
  <line x1="1065.00" y1="138" x2="1065.00" y2="350" stroke="#dbe4f0" stroke-width="1" />
  <text x="1065.00" y="130" font-size="13" text-anchor="middle" fill="#64748b">20</text>
  <line x1="1152.50" y1="138" x2="1152.50" y2="350" stroke="#dbe4f0" stroke-width="1" />
  <text x="1152.50" y="130" font-size="13" text-anchor="middle" fill="#64748b">22</text>
  <line x1="1240.00" y1="138" x2="1240.00" y2="350" stroke="#dbe4f0" stroke-width="1" />
  <text x="1240.00" y="130" font-size="13" text-anchor="middle" fill="#64748b">24</text>
  <rect x="32" y="150" width="1216" height="52" rx="16" fill="#f8fafc" stroke="#e2e8f0" stroke-width="1" />
  <text x="56" y="181" font-size="15" font-weight="600" fill="#0f172a">Worker 1</text>
  <g>
    <title>freeze-release-branch — worker 1, 0→1, duration 1</title>
    <rect x="190.00" y="161.00" width="43.75" height="30" rx="10" fill="#fee2e2" stroke="#b91c1c" stroke-width="2" />
    <text x="239.75" y="180.00" font-size="12" fill="#475569">freeze-release-branch</text>
  </g>
  <g>
    <title>build-macos — worker 1, 1→4, duration 3</title>
    <rect x="233.75" y="161.00" width="131.25" height="30" rx="10" fill="#fee2e2" stroke="#b91c1c" stroke-width="2" />
    <text x="241.75" y="180.00" font-size="13" fill="#0f172a">build-macos</text>
  </g>
  <g>
    <title>sign-macos — worker 1, 5→7, duration 2; queue delay 1; resources signing#1</title>
    <rect x="408.75" y="161.00" width="87.50" height="30" rx="10" fill="#fee2e2" stroke="#b91c1c" stroke-width="2" />
    <text x="416.75" y="180.00" font-size="13" fill="#0f172a">sign-macos</text>
  </g>
  <text x="452.50" y="205.00" font-size="11" text-anchor="middle" fill="#b45309">delay 1</text>
  <g>
    <title>sign-windows — worker 1, 7→9, duration 2; queue delay 4; resources signing#1</title>
    <rect x="496.25" y="161.00" width="87.50" height="30" rx="10" fill="#e0f2fe" stroke="#0369a1" stroke-width="2" />
    <text x="504.25" y="180.00" font-size="13" fill="#0f172a">sign-windows</text>
  </g>
  <text x="540.00" y="205.00" font-size="11" text-anchor="middle" fill="#b45309">delay 4</text>
  <g>
    <title>publish-candidates — worker 1, 9→10, duration 1</title>
    <rect x="583.75" y="161.00" width="43.75" height="30" rx="10" fill="#fee2e2" stroke="#b91c1c" stroke-width="2" />
    <text x="633.50" y="180.00" font-size="12" fill="#475569">publish-candidates</text>
  </g>
  <g>
    <title>deploy-staging — worker 1, 10→11, duration 1</title>
    <rect x="627.50" y="161.00" width="43.75" height="30" rx="10" fill="#fee2e2" stroke="#b91c1c" stroke-width="2" />
    <text x="677.25" y="180.00" font-size="12" fill="#475569">deploy-staging</text>
  </g>
  <g>
    <title>verify-staging — worker 1, 11→13, duration 2</title>
    <rect x="671.25" y="161.00" width="87.50" height="30" rx="10" fill="#fee2e2" stroke="#b91c1c" stroke-width="2" />
    <text x="679.25" y="180.00" font-size="13" fill="#0f172a">verify-staging</text>
  </g>
  <g>
    <title>canary-10pct — worker 1, 13→14, duration 1; resources prod-slot#1</title>
    <rect x="758.75" y="161.00" width="43.75" height="30" rx="10" fill="#fee2e2" stroke="#b91c1c" stroke-width="2" />
    <text x="808.50" y="180.00" font-size="12" fill="#475569">canary-10pct</text>
  </g>
  <g>
    <title>verify-canary-01 — worker 1, 14→16, duration 2</title>
    <rect x="802.50" y="161.00" width="87.50" height="30" rx="10" fill="#fee2e2" stroke="#b91c1c" stroke-width="2" />
    <text x="810.50" y="180.00" font-size="13" fill="#0f172a">verify-canary-01</text>
  </g>
  <g>
    <title>canary-50pct — worker 1, 16→17, duration 1; resources prod-slot#1</title>
    <rect x="890.00" y="161.00" width="43.75" height="30" rx="10" fill="#fee2e2" stroke="#b91c1c" stroke-width="2" />
    <text x="939.75" y="180.00" font-size="12" fill="#475569">canary-50pct</text>
  </g>
  <g>
    <title>verify-canary-02 — worker 1, 17→19, duration 2</title>
    <rect x="933.75" y="161.00" width="87.50" height="30" rx="10" fill="#fee2e2" stroke="#b91c1c" stroke-width="2" />
    <text x="941.75" y="180.00" font-size="13" fill="#0f172a">verify-canary-02</text>
  </g>
  <g>
    <title>canary-90pct — worker 1, 19→20, duration 1; resources prod-slot#1</title>
    <rect x="1021.25" y="161.00" width="43.75" height="30" rx="10" fill="#fee2e2" stroke="#b91c1c" stroke-width="2" />
    <text x="1071.00" y="180.00" font-size="12" fill="#475569">canary-90pct</text>
  </g>
  <g>
    <title>verify-canary-03 — worker 1, 20→22, duration 2</title>
    <rect x="1065.00" y="161.00" width="87.50" height="30" rx="10" fill="#fee2e2" stroke="#b91c1c" stroke-width="2" />
    <text x="1073.00" y="180.00" font-size="13" fill="#0f172a">verify-canary-03</text>
  </g>
  <g>
    <title>full-rollout — worker 1, 22→23, duration 1; resources prod-slot#1</title>
    <rect x="1152.50" y="161.00" width="43.75" height="30" rx="10" fill="#fee2e2" stroke="#b91c1c" stroke-width="2" />
    <text x="1202.25" y="180.00" font-size="12" fill="#475569">full-rollout</text>
  </g>
  <g>
    <title>announce-release — worker 1, 23→24, duration 1</title>
    <rect x="1196.25" y="161.00" width="43.75" height="30" rx="10" fill="#fee2e2" stroke="#b91c1c" stroke-width="2" />
    <text x="1246.00" y="180.00" font-size="12" fill="#475569">announce-release</text>
  </g>
  <rect x="32" y="220" width="1216" height="52" rx="16" fill="#f8fafc" stroke="#e2e8f0" stroke-width="1" />
  <text x="56" y="251" font-size="15" font-weight="600" fill="#0f172a">Worker 2</text>
  <g>
    <title>build-linux — worker 2, 1→3, duration 2</title>
    <rect x="233.75" y="231.00" width="87.50" height="30" rx="10" fill="#cffafe" stroke="#0f766e" stroke-width="2" />
    <text x="241.75" y="250.00" font-size="13" fill="#0f172a">build-linux</text>
  </g>
  <g>
    <title>sign-linux — worker 2, 3→5, duration 2; resources signing#1</title>
    <rect x="321.25" y="231.00" width="87.50" height="30" rx="10" fill="#e0f2fe" stroke="#0369a1" stroke-width="2" />
    <text x="329.25" y="250.00" font-size="13" fill="#0f172a">sign-linux</text>
  </g>
  <rect x="32" y="290" width="1216" height="52" rx="16" fill="#f8fafc" stroke="#e2e8f0" stroke-width="1" />
  <text x="56" y="321" font-size="15" font-weight="600" fill="#0f172a">Worker 3</text>
  <g>
    <title>build-windows — worker 3, 1→3, duration 2</title>
    <rect x="233.75" y="301.00" width="87.50" height="30" rx="10" fill="#dbeafe" stroke="#1d4ed8" stroke-width="2" />
    <text x="241.75" y="320.00" font-size="13" fill="#0f172a">build-windows</text>
  </g>
  <g>
    <title>assemble-release-notes — worker 3, 3→4, duration 1; queue delay 2</title>
    <rect x="321.25" y="301.00" width="43.75" height="30" rx="10" fill="#fef3c7" stroke="#b45309" stroke-width="2" />
    <text x="371.00" y="320.00" font-size="12" fill="#475569">assemble-release-notes</text>
  </g>
  <text x="343.12" y="345.00" font-size="11" text-anchor="middle" fill="#b45309">delay 2</text>
  <rect x="40" y="376" width="1200" height="76" rx="22" fill="#eef2ff" stroke="#c7d2fe" stroke-width="1.5" />
  <text x="64" y="404" font-size="18" font-weight="700" fill="#312e81">Schedule summary</text>
  <text x="64" y="430" font-size="14" fill="#4338ca">Critical tasks are highlighted in red. Worker lanes show deterministic dispatch over 3 workers.</text>
  <text x="64" y="452" font-size="13" fill="#475569">Renewable resource caps: prod-slot=1, signing=1</text>
  <text x="48" y="486" font-size="18" font-weight="700" fill="#0f172a">Resource utilization</text>
  <text x="64" y="508" font-size="13" fill="#475569">prod-slot: capacity 1, peak 1, utilization 16.7%, delayed tasks 0, max queue delay 0</text>
  <text x="64" y="530" font-size="13" fill="#475569">signing: capacity 1, peak 1, utilization 25.0%, delayed tasks 2, max queue delay 4</text>
</svg>