<svg xmlns="http://www.w3.org/2000/svg" width="1280" height="416" viewBox="0 0 1280 416" role="img" aria-labelledby="schedule-title schedule-desc">
  <title id="schedule-title">Dependency graph schedule — Sample Graph — 2 workers — critical-first</title>
  <desc id="schedule-desc">Worker timeline for Dependency graph schedule — Sample Graph — 2 workers — critical-first with 2 workers, strategy critical-first, and makespan 8.</desc>
  <rect width="100%" height="100%" fill="#f8fafc" />
  <rect x="20" y="20" width="1240" height="376" rx="28" fill="#ffffff" stroke="#d7dde8" stroke-width="2" />
  <text x="48" y="62" font-size="30" font-weight="700" fill="#0f172a">Dependency graph schedule — Sample Graph — 2 workers — critical-first</text>
  <text x="48" y="92" font-size="16" fill="#475569">2 workers · critical-first · makespan 8 · utilization 56.2% · idle capacity 7</text>
  <text x="48" y="118" font-size="14" fill="#64748b">Unlimited bound 8 · theoretical lower bound 8 · dispatch order lint, compile, unit, package, publish</text>
  <line x1="190" y1="138" x2="190" y2="280" stroke="#0f172a" stroke-width="2" />
  <line x1="190" y1="280" x2="1240" y2="280" stroke="#0f172a" stroke-width="2" />
  <line x1="190.00" y1="138" x2="190.00" y2="280" stroke="#dbe4f0" stroke-width="1" />
  <text x="190.00" y="130" font-size="13" text-anchor="middle" fill="#64748b">0</text>
  <line x1="321.25" y1="138" x2="321.25" y2="280" stroke="#dbe4f0" stroke-width="1" />
  <text x="321.25" y="130" font-size="13" text-anchor="middle" fill="#64748b">1</text>
  <line x1="452.50" y1="138" x2="452.50" y2="280" stroke="#dbe4f0" stroke-width="1" />
  <text x="452.50" y="130" font-size="13" text-anchor="middle" fill="#64748b">2</text>
  <line x1="583.75" y1="138" x2="583.75" y2="280" stroke="#dbe4f0" stroke-width="1" />
  <text x="583.75" y="130" font-size="13" text-anchor="middle" fill="#64748b">3</text>
  <line x1="715.00" y1="138" x2="715.00" y2="280" stroke="#dbe4f0" stroke-width="1" />
  <text x="715.00" y="130" font-size="13" text-anchor="middle" fill="#64748b">4</text>
  <line x1="846.25" y1="138" x2="846.25" y2="280" stroke="#dbe4f0" stroke-width="1" />
  <text x="846.25" y="130" font-size="13" text-anchor="middle" fill="#64748b">5</text>
  <line x1="977.50" y1="138" x2="977.50" y2="280" stroke="#dbe4f0" stroke-width="1" />
  <text x="977.50" y="130" font-size="13" text-anchor="middle" fill="#64748b">6</text>
  <line x1="1108.75" y1="138" x2="1108.75" y2="280" stroke="#dbe4f0" stroke-width="1" />
  <text x="1108.75" y="130" font-size="13" text-anchor="middle" fill="#64748b">7</text>
  <line x1="1240.00" y1="138" x2="1240.00" y2="280" stroke="#dbe4f0" stroke-width="1" />
  <text x="1240.00" y="130" font-size="13" text-anchor="middle" fill="#64748b">8</text>
  <rect x="32" y="150" width="1216" height="52" rx="16" fill="#f8fafc" stroke="#e2e8f0" stroke-width="1" />
  <text x="56" y="181" font-size="15" font-weight="600" fill="#0f172a">Worker 1</text>
  <g>
    <title>lint — worker 1, 0→1, duration 1</title>
    <rect x="190.00" y="161.00" width="131.25" height="30" rx="10" fill="#fee2e2" stroke="#b91c1c" stroke-width="2" />
    <text x="198.00" y="180.00" font-size="13" fill="#0f172a">lint</text>
  </g>
  <g>
    <title>compile — worker 1, 1→5, duration 4</title>
    <rect x="321.25" y="161.00" width="525.00" height="30" rx="10" fill="#fee2e2" stroke="#b91c1c" stroke-width="2" />
    <text x="329.25" y="180.00" font-size="13" fill="#0f172a">compile</text>
  </g>
  <g>
    <title>unit — worker 1, 5→7, duration 2</title>
    <rect x="846.25" y="161.00" width="262.50" height="30" rx="10" fill="#fee2e2" stroke="#b91c1c" stroke-width="2" />
    <text x="854.25" y="180.00" font-size="13" fill="#0f172a">unit</text>
  </g>
  <g>
    <title>publish — worker 1, 7→8, duration 1</title>
    <rect x="1108.75" y="161.00" width="131.25" height="30" rx="10" fill="#fee2e2" stroke="#b91c1c" stroke-width="2" />
    <text x="1116.75" y="180.00" font-size="13" fill="#0f172a">publish</text>
  </g>
  <rect x="32" y="220" width="1216" height="52" rx="16" fill="#f8fafc" stroke="#e2e8f0" stroke-width="1" />
  <text x="56" y="251" font-size="15" font-weight="600" fill="#0f172a">Worker 2</text>
  <g>
    <title>package — worker 2, 5→6, duration 1</title>
    <rect x="846.25" y="231.00" width="131.25" height="30" rx="10" fill="#dcfce7" stroke="#15803d" stroke-width="2" />
    <text x="854.25" y="250.00" font-size="13" fill="#0f172a">package</text>
  </g>
  <rect x="40" y="306" width="1200" height="76" rx="22" fill="#eef2ff" stroke="#c7d2fe" stroke-width="1.5" />
  <text x="64" y="334" font-size="18" font-weight="700" fill="#312e81">Schedule summary</text>
  <text x="64" y="360" font-size="14" fill="#4338ca">Critical tasks are highlighted in red. Worker lanes show deterministic dispatch over 2 workers.</text>
  <text x="64" y="382" font-size="13" fill="#475569">No renewable resource caps were required for this schedule.</text>
</svg>