<svg xmlns="http://www.w3.org/2000/svg" width="1280" height="346" viewBox="0 0 1280 346" role="img" aria-labelledby="schedule-title schedule-desc">
  <title id="schedule-title">Dependency graph schedule — Sample Graph — 1 worker — critical-first</title>
  <desc id="schedule-desc">Worker timeline for Dependency graph schedule — Sample Graph — 1 worker — critical-first with 1 worker, strategy critical-first, and makespan 9.</desc>
  <rect width="100%" height="100%" fill="#f8fafc" />
  <rect x="20" y="20" width="1240" height="306" rx="28" fill="#ffffff" stroke="#d7dde8" stroke-width="2" />
  <text x="48" y="62" font-size="30" font-weight="700" fill="#0f172a">Dependency graph schedule — Sample Graph — 1 worker — critical-first</text>
  <text x="48" y="92" font-size="16" fill="#475569">1 worker · critical-first · makespan 9 · utilization 100.0% · idle capacity 0</text>
  <text x="48" y="118" font-size="14" fill="#64748b">Unlimited bound 8 · theoretical lower bound 9 · dispatch order lint, compile, unit, package, publish</text>
  <line x1="190" y1="138" x2="190" y2="210" stroke="#0f172a" stroke-width="2" />
  <line x1="190" y1="210" x2="1240" y2="210" stroke="#0f172a" stroke-width="2" />
  <line x1="190.00" y1="138" x2="190.00" y2="210" stroke="#dbe4f0" stroke-width="1" />
  <text x="190.00" y="130" font-size="13" text-anchor="middle" fill="#64748b">0</text>
  <line x1="306.67" y1="138" x2="306.67" y2="210" stroke="#dbe4f0" stroke-width="1" />
  <text x="306.67" y="130" font-size="13" text-anchor="middle" fill="#64748b">1</text>
  <line x1="423.33" y1="138" x2="423.33" y2="210" stroke="#dbe4f0" stroke-width="1" />
  <text x="423.33" y="130" font-size="13" text-anchor="middle" fill="#64748b">2</text>
  <line x1="540.00" y1="138" x2="540.00" y2="210" stroke="#dbe4f0" stroke-width="1" />
  <text x="540.00" y="130" font-size="13" text-anchor="middle" fill="#64748b">3</text>
  <line x1="656.67" y1="138" x2="656.67" y2="210" stroke="#dbe4f0" stroke-width="1" />
  <text x="656.67" y="130" font-size="13" text-anchor="middle" fill="#64748b">4</text>
  <line x1="773.33" y1="138" x2="773.33" y2="210" stroke="#dbe4f0" stroke-width="1" />
  <text x="773.33" y="130" font-size="13" text-anchor="middle" fill="#64748b">5</text>
  <line x1="890.00" y1="138" x2="890.00" y2="210" stroke="#dbe4f0" stroke-width="1" />
  <text x="890.00" y="130" font-size="13" text-anchor="middle" fill="#64748b">6</text>
  <line x1="1006.67" y1="138" x2="1006.67" y2="210" stroke="#dbe4f0" stroke-width="1" />
  <text x="1006.67" y="130" font-size="13" text-anchor="middle" fill="#64748b">7</text>
  <line x1="1123.33" y1="138" x2="1123.33" y2="210" stroke="#dbe4f0" stroke-width="1" />
  <text x="1123.33" y="130" font-size="13" text-anchor="middle" fill="#64748b">8</text>
  <line x1="1240.00" y1="138" x2="1240.00" y2="210" stroke="#dbe4f0" stroke-width="1" />
  <text x="1240.00" y="130" font-size="13" text-anchor="middle" fill="#64748b">9</text>
  <rect x="32" y="150" width="1216" height="52" rx="16" fill="#f8fafc" stroke="#e2e8f0" stroke-width="1" />
  <text x="56" y="181" font-size="15" font-weight="600" fill="#0f172a">Worker 1</text>
  <g>
    <title>lint — worker 1, 0→1, duration 1</title>
    <rect x="190.00" y="161.00" width="116.67" height="30" rx="10" fill="#fee2e2" stroke="#b91c1c" stroke-width="2" />
    <text x="198.00" y="180.00" font-size="13" fill="#0f172a">lint</text>
  </g>
  <g>
    <title>compile — worker 1, 1→5, duration 4</title>
    <rect x="306.67" y="161.00" width="466.67" height="30" rx="10" fill="#fee2e2" stroke="#b91c1c" stroke-width="2" />
    <text x="314.67" y="180.00" font-size="13" fill="#0f172a">compile</text>
  </g>
  <g>
    <title>unit — worker 1, 5→7, duration 2</title>
    <rect x="773.33" y="161.00" width="233.33" height="30" rx="10" fill="#fee2e2" stroke="#b91c1c" stroke-width="2" />
    <text x="781.33" y="180.00" font-size="13" fill="#0f172a">unit</text>
  </g>
  <g>
    <title>package — worker 1, 7→8, duration 1; queue delay 2</title>
    <rect x="1006.67" y="161.00" width="116.67" height="30" rx="10" fill="#dcfce7" stroke="#15803d" stroke-width="2" />
    <text x="1014.67" y="180.00" font-size="13" fill="#0f172a">package</text>
  </g>
  <text x="1065.00" y="205.00" font-size="11" text-anchor="middle" fill="#b45309">delay 2</text>
  <g>
    <title>publish — worker 1, 8→9, duration 1</title>
    <rect x="1123.33" y="161.00" width="116.67" height="30" rx="10" fill="#fee2e2" stroke="#b91c1c" stroke-width="2" />
    <text x="1131.33" y="180.00" font-size="13" fill="#0f172a">publish</text>
  </g>
  <rect x="40" y="236" width="1200" height="76" rx="22" fill="#eef2ff" stroke="#c7d2fe" stroke-width="1.5" />
  <text x="64" y="264" font-size="18" font-weight="700" fill="#312e81">Schedule summary</text>
  <text x="64" y="290" font-size="14" fill="#4338ca">Critical tasks are highlighted in red. Worker lanes show deterministic dispatch over 1 worker.</text>
  <text x="64" y="312" font-size="13" fill="#475569">No renewable resource caps were required for this schedule.</text>
</svg>