<svg xmlns="http://www.w3.org/2000/svg" width="1280" height="416" viewBox="0 0 1280 416" role="img" aria-labelledby="schedule-title schedule-desc">
  <title id="schedule-title">Dependency graph schedule — Strategy Graph — 2 workers — fifo</title>
  <desc id="schedule-desc">Worker timeline for Dependency graph schedule — Strategy Graph — 2 workers — fifo with 2 workers, strategy fifo, and makespan 16.</desc>
  <rect width="100%" height="100%" fill="#f8fafc" />
  <rect x="20" y="20" width="1240" height="376" rx="28" fill="#ffffff" stroke="#d7dde8" stroke-width="2" />
  <text x="48" y="62" font-size="30" font-weight="700" fill="#0f172a">Dependency graph schedule — Strategy Graph — 2 workers — fifo</text>
  <text x="48" y="92" font-size="16" fill="#475569">2 workers · fifo · makespan 16 · utilization 68.8% · idle capacity 10</text>
  <text x="48" y="118" font-size="14" fill="#64748b">Unlimited bound 10 · theoretical lower bound 11 · dispatch order alpha-long, beta-long, core-seed, core-stage-1, core-stage-2, ship</text>
  <line x1="190" y1="138" x2="190" y2="280" stroke="#0f172a" stroke-width="2" />
  <line x1="190" y1="280" x2="1240" y2="280" stroke="#0f172a" stroke-width="2" />
  <line x1="190.00" y1="138" x2="190.00" y2="280" stroke="#dbe4f0" stroke-width="1" />
  <text x="190.00" y="130" font-size="13" text-anchor="middle" fill="#64748b">0</text>
  <line x1="321.25" y1="138" x2="321.25" y2="280" stroke="#dbe4f0" stroke-width="1" />
  <text x="321.25" y="130" font-size="13" text-anchor="middle" fill="#64748b">2</text>
  <line x1="452.50" y1="138" x2="452.50" y2="280" stroke="#dbe4f0" stroke-width="1" />
  <text x="452.50" y="130" font-size="13" text-anchor="middle" fill="#64748b">4</text>
  <line x1="583.75" y1="138" x2="583.75" y2="280" stroke="#dbe4f0" stroke-width="1" />
  <text x="583.75" y="130" font-size="13" text-anchor="middle" fill="#64748b">6</text>
  <line x1="715.00" y1="138" x2="715.00" y2="280" stroke="#dbe4f0" stroke-width="1" />
  <text x="715.00" y="130" font-size="13" text-anchor="middle" fill="#64748b">8</text>
  <line x1="846.25" y1="138" x2="846.25" y2="280" stroke="#dbe4f0" stroke-width="1" />
  <text x="846.25" y="130" font-size="13" text-anchor="middle" fill="#64748b">10</text>
  <line x1="977.50" y1="138" x2="977.50" y2="280" stroke="#dbe4f0" stroke-width="1" />
  <text x="977.50" y="130" font-size="13" text-anchor="middle" fill="#64748b">12</text>
  <line x1="1108.75" y1="138" x2="1108.75" y2="280" stroke="#dbe4f0" stroke-width="1" />
  <text x="1108.75" y="130" font-size="13" text-anchor="middle" fill="#64748b">14</text>
  <line x1="1240.00" y1="138" x2="1240.00" y2="280" stroke="#dbe4f0" stroke-width="1" />
  <text x="1240.00" y="130" font-size="13" text-anchor="middle" fill="#64748b">16</text>
  <rect x="32" y="150" width="1216" height="52" rx="16" fill="#f8fafc" stroke="#e2e8f0" stroke-width="1" />
  <text x="56" y="181" font-size="15" font-weight="600" fill="#0f172a">Worker 1</text>
  <g>
    <title>alpha-long — worker 1, 0→6, duration 6</title>
    <rect x="190.00" y="161.00" width="393.75" height="30" rx="10" fill="#fae8ff" stroke="#a21caf" stroke-width="2" />
    <text x="198.00" y="180.00" font-size="13" fill="#0f172a">alpha-long</text>
  </g>
  <g>
    <title>core-seed — worker 1, 6→7, duration 1; queue delay 6</title>
    <rect x="583.75" y="161.00" width="65.62" height="30" rx="10" fill="#fee2e2" stroke="#b91c1c" stroke-width="2" />
    <text x="655.38" y="180.00" font-size="12" fill="#475569">core-seed</text>
  </g>
  <text x="616.56" y="205.00" font-size="11" text-anchor="middle" fill="#b45309">delay 6</text>
  <g>
    <title>core-stage-1 — worker 1, 7→11, duration 4</title>
    <rect x="649.38" y="161.00" width="262.50" height="30" rx="10" fill="#fee2e2" stroke="#b91c1c" stroke-width="2" />
    <text x="657.38" y="180.00" font-size="13" fill="#0f172a">core-stage-1</text>
  </g>
  <g>
    <title>core-stage-2 — worker 1, 11→15, duration 4</title>
    <rect x="911.88" y="161.00" width="262.50" height="30" rx="10" fill="#fee2e2" stroke="#b91c1c" stroke-width="2" />
    <text x="919.88" y="180.00" font-size="13" fill="#0f172a">core-stage-2</text>
  </g>
  <g>
    <title>ship — worker 1, 15→16, duration 1</title>
    <rect x="1174.38" y="161.00" width="65.62" height="30" rx="10" fill="#fee2e2" stroke="#b91c1c" stroke-width="2" />
    <text x="1246.00" y="180.00" font-size="12" fill="#475569">ship</text>
  </g>
  <rect x="32" y="220" width="1216" height="52" rx="16" fill="#f8fafc" stroke="#e2e8f0" stroke-width="1" />
  <text x="56" y="251" font-size="15" font-weight="600" fill="#0f172a">Worker 2</text>
  <g>
    <title>beta-long — worker 2, 0→6, duration 6</title>
    <rect x="190.00" y="231.00" width="393.75" height="30" rx="10" fill="#cffafe" stroke="#0f766e" stroke-width="2" />
    <text x="198.00" y="250.00" font-size="13" fill="#0f172a">beta-long</text>
  </g>
  <rect x="40" y="306" width="1200" height="76" rx="22" fill="#eef2ff" stroke="#c7d2fe" stroke-width="1.5" />
  <text x="64" y="334" font-size="18" font-weight="700" fill="#312e81">Schedule summary</text>
  <text x="64" y="360" font-size="14" fill="#4338ca">Critical tasks are highlighted in red. Worker lanes show deterministic dispatch over 2 workers.</text>
  <text x="64" y="382" font-size="13" fill="#475569">No renewable resource caps were required for this schedule.</text>
</svg>